<svg xmlns="http://www.w3.org/2000/svg" viewBox="0 0 500 500">
<rect width="100%" height="100%" fill="#000000"/>
<rect x="2.4271844660194173" y="0.0" width="1.9271844660194173" height="1.9271844660194173" fill="rgb(255,255,255)"/>
<rect x="4.854368932038835" y="0.0" width="1.9271844660194173" height="1.9271844660194173" fill="rgb(255,255,255)"/>
<rect x="7.281553398058252" y="0.0" width="1.9271844660194173" height="1.9271844660194173" fill="rgb(255,255,255)"/>
<rect x="9.70873786407767" y="0.0" width="1.9271844660194173" height="1.9271844660194173" fill="rgb(255,255,255)"/>
<rect x="12.135922330097086" y="0.0" width="1.9271844660194173" height="1.9271844660194173" fill="rgb(255,255,255)"/>
<rect x="14.563106796116504" y="0.0" width="1.9271844660194173" height="1.9271844660194173" fill="rgb(255,255,255)"/>
<rect x="16.99029126213592" y="0.0" width="1.9271844660194173" height="1.9271844660194173" fill="rgb(255,255,255)"/>
<rect x="19.41747572815534" y="0.0" width="1.9271844660194173" height="1.9271844660194173" fill="rgb(255,255,255)"/>
<rect x="21.844660194174757" y="0.0" width="1.9271844660194173" height="1.9271844660194173" fill="rgb(255,255,255)"/>
<rect x="24.271844660194173" y="0.0" width="1.9271844660194173" height="1.9271844660194173" fill="rgb(255,255,255)"/>
<rect x="26.69902912621359" y="0.0" width="1.9271844660194173" height="1.9271844660194173" fill="rgb(255,255,255)"/>
<rect x="29.126213592233007" y="0.0" width="1.9271844660194173" height="1.9271844660194173" fill="rgb(255,255,255)"/>
<rect x="31.553398058252426" y="0.0" width="1.9271844660194173" height="1.9271844660194173" fill="rgb(255,255,255)"/>
<rect x="33.98058252427184" y="0.0" width="1.9271844660194173" height="1.9271844660194173" fill="rgb(255,255,255)"/>
<rect x="36.40776699029126" y="0.0" width="1.9271844660194173" height="1.9271844660194173" fill="rgb(255,255,255)"/>
<rect x="38.83495145631068" y="0.0" width="1.9271844660194173" height="1.9271844660194173" fill="rgb(255,255,255)"/>
<rect x="497.57281553398053" y="0.0" width="1.9271844660194173" height="1.9271844660194173" fill="rgb(255,255,255)"/>
<rect x="41.262135922330096" y="2.4271844660194173" width="1.9271844660194173" height="1.9271844660194173" fill="rgb(255,255,255)"/>
<rect x="43.689320388349515" y="2.4271844660194173" width="1.9271844660194173" height="1.9271844660194173" fill="rgb(255,255,255)"/>
<rect x="46.11650485436893" y="2.4271844660194173" width="1.9271844660194173" height="1.9271844660194173" fill="rgb(255,255,255)"/>
<rect x="48.543689320388346" y="4.854368932038835" width="1.9271844660194173" height="1.9271844660194173" fill="rgb(255,255,255)"/>
<rect x="50.970873786407765" y="4.854368932038835" width="1.9271844660194173" height="1.9271844660194173" fill="rgb(255,255,255)"/>
<rect x="53.39805825242718" y="4.854368932038835" width="1.9271844660194173" height="1.9271844660194173" fill="rgb(255,255,255)"/>
<rect x="55.825242718446596" y="4.854368932038835" width="1.9271844660194173" height="1.9271844660194173" fill="rgb(255,255,255)"/>
<rect x="58.252427184466015" y="4.854368932038835" width="1.9271844660194173" height="1.9271844660194173" fill="rgb(255,255,255)"/>
<rect x="60.679611650485434" y="4.854368932038835" width="1.9271844660194173" height="1.9271844660194173" fill="rgb(255,255,255)"/>
<rect x="191.74757281553397" y="7.281553398058252" width="1.9271844660194173" height="1.9271844660194173" fill="rgb(255,255,255)"/>
<rect x="194.17475728155338" y="7.281553398058252" width="1.9271844660194173" height="1.9271844660194173" fill="rgb(255,255,255)"/>
<rect x="218.44660194174756" y="9.70873786407767" width="1.9271844660194173" height="1.9271844660194173" fill="rgb(255,255,255)"/>
<rect x="220.87378640776697" y="9.70873786407767" width="1.9271844660194173" height="1.9271844660194173" fill="rgb(255,255,255)"/>
<rect x="230.58252427184465" y="12.135922330097086" width="1.9271844660194173" height="1.9271844660194173" fill="rgb(255,255,255)"/>
<rect x="233.00970873786406" y="12.135922330097086" width="1.9271844660194173" height="1.9271844660194173" fill="rgb(255,255,255)"/>
<rect x="235.43689320388347" y="12.135922330097086" width="1.9271844660194173" height="1.9271844660194173" fill="rgb(255,255,255)"/>
<rect x="237.86407766990288" y="12.135922330097086" width="1.9271844660194173" height="1.9271844660194173" fill="rgb(255,255,255)"/>
<rect x="262.13592233009706" y="14.563106796116504" width="1.9271844660194173" height="1.9271844660194173" fill="rgb(255,255,255)"/>
<rect x="264.5631067961165" y="14.563106796116504" width="1.9271844660194173" height="1.9271844660194173" fill="rgb(255,255,255)"/>
<rect x="313.1067961165048" y="16.99029126213592" width="1.9271844660194173" height="1.9271844660194173" fill="rgb(255,255,255)"/>
<rect x="315.53398058252424" y="16.99029126213592" width="1.9271844660194173" height="1.9271844660194173" fill="rgb(255,255,255)"/>
<rect x="317.96116504854365" y="16.99029126213592" width="1.9271844660194173" height="1.9271844660194173" fill="rgb(255,255,255)"/>
<rect x="320.38834951456306" y="16.99029126213592" width="1.9271844660194173" height="1.9271844660194173" fill="rgb(255,255,255)"/>
<rect x="322.8155339805825" y="16.99029126213592" width="1.9271844660194173" height="1.9271844660194173" fill="rgb(255,255,255)"/>
<rect x="325.24271844660194" y="16.99029126213592" width="1.9271844660194173" height="1.9271844660194173" fill="rgb(255,255,255)"/>
<rect x="376.2135922330097" y="19.41747572815534" width="1.9271844660194173" height="1.9271844660194173" fill="rgb(255,255,255)"/>
<rect x="378.6407766990291" y="19.41747572815534" width="1.9271844660194173" height="1.9271844660194173" fill="rgb(255,255,255)"/>
<rect x="381.06796116504853" y="19.41747572815534" width="1.9271844660194173" height="1.9271844660194173" fill="rgb(255,255,255)"/>
<rect x="395.631067961165" y="21.844660194174757" width="1.9271844660194173" height="1.9271844660194173" fill="rgb(255,255,255)"/>
<rect x="398.0582524271844" y="21.844660194174757" width="1.9271844660194173" height="1.9271844660194173" fill="rgb(255,255,255)"/>
<rect x="400.4854368932038" y="21.844660194174757" width="1.9271844660194173" height="1.9271844660194173" fill="rgb(255,255,255)"/>
<rect x="402.9126213592233" y="21.844660194174757" width="1.9271844660194173" height="1.9271844660194173" fill="rgb(255,255,255)"/>
<rect x="405.3398058252427" y="24.271844660194173" width="1.9271844660194173" height="1.9271844660194173" fill="rgb(255,255,255)"/>
<rect x="407.7669902912621" y="24.271844660194173" width="1.9271844660194173" height="1.9271844660194173" fill="rgb(255,255,255)"/>
<rect x="410.19417475728153" y="24.271844660194173" width="1.9271844660194173" height="1.9271844660194173" fill="rgb(255,255,255)"/>
<rect x="412.62135922330094" y="24.271844660194173" width="1.9271844660194173" height="1.9271844660194173" fill="rgb(255,255,255)"/>
<rect x="415.04854368932035" y="24.271844660194173" width="1.9271844660194173" height="1.9271844660194173" fill="rgb(255,255,255)"/>
<rect x="417.47572815533977" y="24.271844660194173" width="1.9271844660194173" height="1.9271844660194173" fill="rgb(255,255,255)"/>
<rect x="419.9029126213592" y="24.271844660194173" width="1.9271844660194173" height="1.9271844660194173" fill="rgb(255,255,255)"/>
<rect x="63.10679611650485" y="48.543689320388346" width="1.9271844660194173" height="1.9271844660194173" fill="rgb(255,255,255)"/>
<rect x="65.53398058252426" y="48.543689320388346" width="1.9271844660194173" height="1.9271844660194173" fill="rgb(255,255,255)"/>
<rect x="67.96116504854368" y="48.543689320388346" width="1.9271844660194173" height="1.9271844660194173" fill="rgb(255,255,255)"/>
<rect x="70.3883495145631" y="48.543689320388346" width="1.9271844660194173" height="1.9271844660194173" fill="rgb(255,255,255)"/>
<rect x="72.81553398058252" y="48.543689320388346" width="1.9271844660194173" height="1.9271844660194173" fill="rgb(255,255,255)"/>
<rect x="92.23300970873785" y="50.970873786407765" width="1.9271844660194173" height="1.9271844660194173" fill="rgb(255,255,255)"/>
<rect x="94.66019417475728" y="50.970873786407765" width="1.9271844660194173" height="1.9271844660194173" fill="rgb(255,255,255)"/>
<rect x="97.08737864077669" y="50.970873786407765" width="1.9271844660194173" height="1.9271844660194173" fill="rgb(255,255,255)"/>
<rect x="123.78640776699028" y="53.39805825242718" width="1.9271844660194173" height="1.9271844660194173" fill="rgb(255,255,255)"/>
<rect x="138.3495145631068" y="55.825242718446596" width="1.9271844660194173" height="1.9271844660194173" fill="rgb(255,255,255)"/>
<rect x="140.7766990291262" y="55.825242718446596" width="1.9271844660194173" height="1.9271844660194173" fill="rgb(255,255,255)"/>
<rect x="143.20388349514562" y="55.825242718446596" width="1.9271844660194173" height="1.9271844660194173" fill="rgb(255,255,255)"/>
<rect x="145.63106796116503" y="58.252427184466015" width="1.9271844660194173" height="1.9271844660194173" fill="rgb(255,255,255)"/>
<rect x="148.05825242718444" y="58.252427184466015" width="1.9271844660194173" height="1.9271844660194173" fill="rgb(255,255,255)"/>
<rect x="75.24271844660194" y="65.53398058252426" width="1.9271844660194173" height="1.9271844660194173" fill="rgb(255,255,255)"/>
<rect x="77.66990291262135" y="67.96116504854368" width="1.9271844660194173" height="1.9271844660194173" fill="rgb(255,255,255)"/>
<rect x="80.09708737864077" y="70.3883495145631" width="1.9271844660194173" height="1.9271844660194173" fill="rgb(255,255,255)"/>
<rect x="82.52427184466019" y="70.3883495145631" width="1.9271844660194173" height="1.9271844660194173" fill="rgb(255,255,255)"/>
<rect x="84.9514563106796" y="82.52427184466019" width="1.9271844660194173" height="1.9271844660194173" fill="rgb(255,255,255)"/>
<rect x="87.37864077669903" y="82.52427184466019" width="1.9271844660194173" height="1.9271844660194173" fill="rgb(255,255,255)"/>
<rect x="89.80582524271844" y="82.52427184466019" width="1.9271844660194173" height="1.9271844660194173" fill="rgb(255,255,255)"/>
<rect x="99.5145631067961" y="92.23300970873785" width="1.9271844660194173" height="1.9271844660194173" fill="rgb(255,255,255)"/>
<rect x="101.94174757281553" y="92.23300970873785" width="1.9271844660194173" height="1.9271844660194173" fill="rgb(255,255,255)"/>
<rect x="104.36893203883494" y="92.23300970873785" width="1.9271844660194173" height="1.9271844660194173" fill="rgb(255,255,255)"/>
<rect x="106.79611650485435" y="92.23300970873785" width="1.9271844660194173" height="1.9271844660194173" fill="rgb(255,255,255)"/>
<rect x="109.22330097087378" y="94.66019417475728" width="1.9271844660194173" height="1.9271844660194173" fill="rgb(255,255,255)"/>
<rect x="111.65048543689319" y="94.66019417475728" width="1.9271844660194173" height="1.9271844660194173" fill="rgb(255,255,255)"/>
<rect x="116.50485436893203" y="97.08737864077669" width="1.9271844660194173" height="1.9271844660194173" fill="rgb(255,255,255)"/>
<rect x="118.93203883495144" y="97.08737864077669" width="1.9271844660194173" height="1.9271844660194173" fill="rgb(255,255,255)"/>
<rect x="114.07766990291262" y="111.65048543689319" width="1.9271844660194173" height="1.9271844660194173" fill="rgb(255,255,255)"/>
<rect x="121.35922330097087" y="118.93203883495144" width="1.9271844660194173" height="1.9271844660194173" fill="rgb(255,255,255)"/>
<rect x="126.2135922330097" y="123.78640776699028" width="1.9271844660194173" height="1.9271844660194173" fill="rgb(255,255,255)"/>
<rect x="128.64077669902912" y="123.78640776699028" width="1.9271844660194173" height="1.9271844660194173" fill="rgb(255,255,255)"/>
<rect x="131.06796116504853" y="123.78640776699028" width="1.9271844660194173" height="1.9271844660194173" fill="rgb(255,255,255)"/>
<rect x="133.49514563106794" y="123.78640776699028" width="1.9271844660194173" height="1.9271844660194173" fill="rgb(255,255,255)"/>
<rect x="135.92233009708735" y="123.78640776699028" width="1.9271844660194173" height="1.9271844660194173" fill="rgb(255,255,255)"/>
<rect x="150.48543689320388" y="145.63106796116503" width="1.9271844660194173" height="1.9271844660194173" fill="rgb(255,255,255)"/>
<rect x="152.9126213592233" y="145.63106796116503" width="1.9271844660194173" height="1.9271844660194173" fill="rgb(255,255,255)"/>
<rect x="155.3398058252427" y="145.63106796116503" width="1.9271844660194173" height="1.9271844660194173" fill="rgb(255,255,255)"/>
<rect x="150.48543689320388" y="148.05825242718444" width="1.9271844660194173" height="1.9271844660194173" fill="rgb(255,255,255)"/>
<rect x="152.9126213592233" y="148.05825242718444" width="1.9271844660194173" height="1.9271844660194173" fill="rgb(255,255,255)"/>
<rect x="155.3398058252427" y="148.05825242718444" width="1.9271844660194173" height="1.9271844660194173" fill="rgb(255,255,255)"/>
<rect x="157.76699029126212" y="150.48543689320388" width="1.9271844660194173" height="1.9271844660194173" fill="rgb(255,255,255)"/>
<rect x="160.19417475728153" y="150.48543689320388" width="1.9271844660194173" height="1.9271844660194173" fill="rgb(255,255,255)"/>
<rect x="162.62135922330097" y="150.48543689320388" width="1.9271844660194173" height="1.9271844660194173" fill="rgb(255,255,255)"/>
<rect x="165.04854368932038" y="150.48543689320388" width="1.9271844660194173" height="1.9271844660194173" fill="rgb(255,255,255)"/>
<rect x="184.4660194174757" y="150.48543689320388" width="1.9271844660194173" height="1.9271844660194173" fill="rgb(255,255,255)"/>
<rect x="167.4757281553398" y="152.9126213592233" width="1.9271844660194173" height="1.9271844660194173" fill="rgb(255,255,255)"/>
<rect x="169.9029126213592" y="152.9126213592233" width="1.9271844660194173" height="1.9271844660194173" fill="rgb(255,255,255)"/>
<rect x="177.18446601941747" y="155.3398058252427" width="1.9271844660194173" height="1.9271844660194173" fill="rgb(255,255,255)"/>
<rect x="179.61165048543688" y="155.3398058252427" width="1.9271844660194173" height="1.9271844660194173" fill="rgb(255,255,255)"/>
<rect x="356.79611650485435" y="162.62135922330097" width="1.9271844660194173" height="1.9271844660194173" fill="rgb(255,255,255)"/>
<rect x="43.689320388349515" y="165.04854368932038" width="1.9271844660194173" height="1.9271844660194173" fill="rgb(255,255,255)"/>
<rect x="172.33009708737862" y="169.9029126213592" width="1.9271844660194173" height="1.9271844660194173" fill="rgb(255,255,255)"/>
<rect x="174.75728155339806" y="169.9029126213592" width="1.9271844660194173" height="1.9271844660194173" fill="rgb(255,255,255)"/>
<rect x="182.0388349514563" y="179.61165048543688" width="1.9271844660194173" height="1.9271844660194173" fill="rgb(255,255,255)"/>
<rect x="186.89320388349512" y="184.4660194174757" width="1.9271844660194173" height="1.9271844660194173" fill="rgb(255,255,255)"/>
<rect x="189.32038834951456" y="184.4660194174757" width="1.9271844660194173" height="1.9271844660194173" fill="rgb(255,255,255)"/>
<rect x="196.6019417475728" y="194.17475728155338" width="1.9271844660194173" height="1.9271844660194173" fill="rgb(255,255,255)"/>
<rect x="199.0291262135922" y="194.17475728155338" width="1.9271844660194173" height="1.9271844660194173" fill="rgb(255,255,255)"/>
<rect x="201.45631067961165" y="194.17475728155338" width="1.9271844660194173" height="1.9271844660194173" fill="rgb(255,255,255)"/>
<rect x="203.88349514563106" y="194.17475728155338" width="1.9271844660194173" height="1.9271844660194173" fill="rgb(255,255,255)"/>
<rect x="206.31067961165047" y="194.17475728155338" width="1.9271844660194173" height="1.9271844660194173" fill="rgb(255,255,255)"/>
<rect x="208.73786407766988" y="194.17475728155338" width="1.9271844660194173" height="1.9271844660194173" fill="rgb(255,255,255)"/>
<rect x="211.1650485436893" y="194.17475728155338" width="1.9271844660194173" height="1.9271844660194173" fill="rgb(255,255,255)"/>
<rect x="213.5922330097087" y="194.17475728155338" width="1.9271844660194173" height="1.9271844660194173" fill="rgb(255,255,255)"/>
<rect x="216.01941747572815" y="213.5922330097087" width="1.9271844660194173" height="1.9271844660194173" fill="rgb(255,255,255)"/>
<rect x="223.30097087378638" y="220.87378640776697" width="1.9271844660194173" height="1.9271844660194173" fill="rgb(255,255,255)"/>
<rect x="225.7281553398058" y="220.87378640776697" width="1.9271844660194173" height="1.9271844660194173" fill="rgb(255,255,255)"/>
<rect x="228.15533980582524" y="220.87378640776697" width="1.9271844660194173" height="1.9271844660194173" fill="rgb(255,255,255)"/>
<rect x="240.29126213592232" y="230.58252427184465" width="1.9271844660194173" height="1.9271844660194173" fill="rgb(255,255,255)"/>
<rect x="242.71844660194174" y="233.00970873786406" width="1.9271844660194173" height="1.9271844660194173" fill="rgb(255,255,255)"/>
<rect x="245.14563106796115" y="233.00970873786406" width="1.9271844660194173" height="1.9271844660194173" fill="rgb(255,255,255)"/>
<rect x="247.57281553398056" y="235.43689320388347" width="1.9271844660194173" height="1.9271844660194173" fill="rgb(255,255,255)"/>
<rect x="249.99999999999997" y="235.43689320388347" width="1.9271844660194173" height="1.9271844660194173" fill="rgb(255,255,255)"/>
<rect x="252.4271844660194" y="235.43689320388347" width="1.9271844660194173" height="1.9271844660194173" fill="rgb(255,255,255)"/>
<rect x="254.85436893203882" y="235.43689320388347" width="1.9271844660194173" height="1.9271844660194173" fill="rgb(255,255,255)"/>
<rect x="257.28155339805824" y="235.43689320388347" width="1.9271844660194173" height="1.9271844660194173" fill="rgb(255,255,255)"/>
<rect x="259.70873786407765" y="237.86407766990288" width="1.9271844660194173" height="1.9271844660194173" fill="rgb(255,255,255)"/>
<rect x="240.29126213592232" y="247.57281553398056" width="1.9271844660194173" height="1.9271844660194173" fill="rgb(255,255,255)"/>
<rect x="266.9902912621359" y="262.13592233009706" width="1.9271844660194173" height="1.9271844660194173" fill="rgb(255,255,255)"/>
<rect x="269.4174757281553" y="262.13592233009706" width="1.9271844660194173" height="1.9271844660194173" fill="rgb(255,255,255)"/>
<rect x="271.8446601941747" y="262.13592233009706" width="1.9271844660194173" height="1.9271844660194173" fill="rgb(255,255,255)"/>
<rect x="274.2718446601942" y="262.13592233009706" width="1.9271844660194173" height="1.9271844660194173" fill="rgb(255,255,255)"/>
<rect x="276.6990291262136" y="262.13592233009706" width="1.9271844660194173" height="1.9271844660194173" fill="rgb(255,255,255)"/>
<rect x="279.126213592233" y="262.13592233009706" width="1.9271844660194173" height="1.9271844660194173" fill="rgb(255,255,255)"/>
<rect x="281.5533980582524" y="262.13592233009706" width="1.9271844660194173" height="1.9271844660194173" fill="rgb(255,255,255)"/>
<rect x="283.9805825242718" y="262.13592233009706" width="1.9271844660194173" height="1.9271844660194173" fill="rgb(255,255,255)"/>
<rect x="286.40776699029124" y="264.5631067961165" width="1.9271844660194173" height="1.9271844660194173" fill="rgb(255,255,255)"/>
<rect x="288.83495145631065" y="264.5631067961165" width="1.9271844660194173" height="1.9271844660194173" fill="rgb(255,255,255)"/>
<rect x="291.26213592233006" y="264.5631067961165" width="1.9271844660194173" height="1.9271844660194173" fill="rgb(255,255,255)"/>
<rect x="293.6893203883495" y="264.5631067961165" width="1.9271844660194173" height="1.9271844660194173" fill="rgb(255,255,255)"/>
<rect x="296.1165048543689" y="264.5631067961165" width="1.9271844660194173" height="1.9271844660194173" fill="rgb(255,255,255)"/>
<rect x="298.54368932038835" y="264.5631067961165" width="1.9271844660194173" height="1.9271844660194173" fill="rgb(255,255,255)"/>
<rect x="300.97087378640776" y="264.5631067961165" width="1.9271844660194173" height="1.9271844660194173" fill="rgb(255,255,255)"/>
<rect x="422.3300970873786" y="271.8446601941747" width="1.9271844660194173" height="1.9271844660194173" fill="rgb(255,255,255)"/>
<rect x="424.757281553398" y="271.8446601941747" width="1.9271844660194173" height="1.9271844660194173" fill="rgb(255,255,255)"/>
<rect x="427.1844660194174" y="271.8446601941747" width="1.9271844660194173" height="1.9271844660194173" fill="rgb(255,255,255)"/>
<rect x="429.6116504854369" y="274.2718446601942" width="1.9271844660194173" height="1.9271844660194173" fill="rgb(255,255,255)"/>
<rect x="432.0388349514563" y="276.6990291262136" width="1.9271844660194173" height="1.9271844660194173" fill="rgb(255,255,255)"/>
<rect x="434.4660194174757" y="279.126213592233" width="1.9271844660194173" height="1.9271844660194173" fill="rgb(255,255,255)"/>
<rect x="303.3980582524272" y="291.26213592233006" width="1.9271844660194173" height="1.9271844660194173" fill="rgb(255,255,255)"/>
<rect x="436.8932038834951" y="293.6893203883495" width="1.9271844660194173" height="1.9271844660194173" fill="rgb(255,255,255)"/>
<rect x="439.32038834951453" y="296.1165048543689" width="1.9271844660194173" height="1.9271844660194173" fill="rgb(255,255,255)"/>
<rect x="305.8252427184466" y="298.54368932038835" width="1.9271844660194173" height="1.9271844660194173" fill="rgb(255,255,255)"/>
<rect x="308.252427184466" y="298.54368932038835" width="1.9271844660194173" height="1.9271844660194173" fill="rgb(255,255,255)"/>
<rect x="310.6796116504854" y="298.54368932038835" width="1.9271844660194173" height="1.9271844660194173" fill="rgb(255,255,255)"/>
<rect x="441.74757281553394" y="298.54368932038835" width="1.9271844660194173" height="1.9271844660194173" fill="rgb(255,255,255)"/>
<rect x="327.66990291262135" y="313.1067961165048" width="1.9271844660194173" height="1.9271844660194173" fill="rgb(255,255,255)"/>
<rect x="330.09708737864077" y="313.1067961165048" width="1.9271844660194173" height="1.9271844660194173" fill="rgb(255,255,255)"/>
<rect x="332.5242718446602" y="313.1067961165048" width="1.9271844660194173" height="1.9271844660194173" fill="rgb(255,255,255)"/>
<rect x="444.17475728155335" y="313.1067961165048" width="1.9271844660194173" height="1.9271844660194173" fill="rgb(255,255,255)"/>
<rect x="334.9514563106796" y="315.53398058252424" width="1.9271844660194173" height="1.9271844660194173" fill="rgb(255,255,255)"/>
<rect x="337.378640776699" y="315.53398058252424" width="1.9271844660194173" height="1.9271844660194173" fill="rgb(255,255,255)"/>
<rect x="339.8058252427184" y="315.53398058252424" width="1.9271844660194173" height="1.9271844660194173" fill="rgb(255,255,255)"/>
<rect x="485.43689320388347" y="315.53398058252424" width="1.9271844660194173" height="1.9271844660194173" fill="rgb(255,255,255)"/>
<rect x="368.9320388349514" y="317.96116504854365" width="1.9271844660194173" height="1.9271844660194173" fill="rgb(255,255,255)"/>
<rect x="371.3592233009708" y="317.96116504854365" width="1.9271844660194173" height="1.9271844660194173" fill="rgb(255,255,255)"/>
<rect x="495.1456310679611" y="317.96116504854365" width="1.9271844660194173" height="1.9271844660194173" fill="rgb(255,255,255)"/>
<rect x="490.2912621359223" y="320.38834951456306" width="1.9271844660194173" height="1.9271844660194173" fill="rgb(255,255,255)"/>
<rect x="492.7184466019417" y="320.38834951456306" width="1.9271844660194173" height="1.9271844660194173" fill="rgb(255,255,255)"/>
<rect x="359.22330097087377" y="322.8155339805825" width="1.9271844660194173" height="1.9271844660194173" fill="rgb(255,255,255)"/>
<rect x="487.8640776699029" y="322.8155339805825" width="1.9271844660194173" height="1.9271844660194173" fill="rgb(255,255,255)"/>
<rect x="373.78640776699024" y="325.24271844660194" width="1.9271844660194173" height="1.9271844660194173" fill="rgb(255,255,255)"/>
<rect x="446.60194174757277" y="332.5242718446602" width="1.9271844660194173" height="1.9271844660194173" fill="rgb(255,255,255)"/>
<rect x="449.0291262135922" y="332.5242718446602" width="1.9271844660194173" height="1.9271844660194173" fill="rgb(255,255,255)"/>
<rect x="451.4563106796116" y="332.5242718446602" width="1.9271844660194173" height="1.9271844660194173" fill="rgb(255,255,255)"/>
<rect x="453.88349514563106" y="332.5242718446602" width="1.9271844660194173" height="1.9271844660194173" fill="rgb(255,255,255)"/>
<rect x="456.31067961165047" y="332.5242718446602" width="1.9271844660194173" height="1.9271844660194173" fill="rgb(255,255,255)"/>
<rect x="458.7378640776699" y="332.5242718446602" width="1.9271844660194173" height="1.9271844660194173" fill="rgb(255,255,255)"/>
<rect x="461.1650485436893" y="332.5242718446602" width="1.9271844660194173" height="1.9271844660194173" fill="rgb(255,255,255)"/>
<rect x="463.5922330097087" y="332.5242718446602" width="1.9271844660194173" height="1.9271844660194173" fill="rgb(255,255,255)"/>
<rect x="466.0194174757281" y="332.5242718446602" width="1.9271844660194173" height="1.9271844660194173" fill="rgb(255,255,255)"/>
<rect x="468.44660194174753" y="332.5242718446602" width="1.9271844660194173" height="1.9271844660194173" fill="rgb(255,255,255)"/>
<rect x="470.87378640776694" y="332.5242718446602" width="1.9271844660194173" height="1.9271844660194173" fill="rgb(255,255,255)"/>
<rect x="473.30097087378635" y="332.5242718446602" width="1.9271844660194173" height="1.9271844660194173" fill="rgb(255,255,255)"/>
<rect x="475.72815533980577" y="332.5242718446602" width="1.9271844660194173" height="1.9271844660194173" fill="rgb(255,255,255)"/>
<rect x="478.1553398058252" y="332.5242718446602" width="1.9271844660194173" height="1.9271844660194173" fill="rgb(255,255,255)"/>
<rect x="480.58252427184465" y="332.5242718446602" width="1.9271844660194173" height="1.9271844660194173" fill="rgb(255,255,255)"/>
<rect x="483.00970873786406" y="332.5242718446602" width="1.9271844660194173" height="1.9271844660194173" fill="rgb(255,255,255)"/>
<rect x="342.2330097087378" y="339.8058252427184" width="1.9271844660194173" height="1.9271844660194173" fill="rgb(255,255,255)"/>
<rect x="344.66019417475724" y="339.8058252427184" width="1.9271844660194173" height="1.9271844660194173" fill="rgb(255,255,255)"/>
<rect x="347.08737864077665" y="339.8058252427184" width="1.9271844660194173" height="1.9271844660194173" fill="rgb(255,255,255)"/>
<rect x="349.5145631067961" y="339.8058252427184" width="1.9271844660194173" height="1.9271844660194173" fill="rgb(255,255,255)"/>
<rect x="351.94174757281553" y="339.8058252427184" width="1.9271844660194173" height="1.9271844660194173" fill="rgb(255,255,255)"/>
<rect x="354.36893203883494" y="339.8058252427184" width="1.9271844660194173" height="1.9271844660194173" fill="rgb(255,255,255)"/>
<rect x="356.79611650485435" y="339.8058252427184" width="1.9271844660194173" height="1.9271844660194173" fill="rgb(255,255,255)"/>
<rect x="361.6504854368932" y="359.22330097087377" width="1.9271844660194173" height="1.9271844660194173" fill="rgb(255,255,255)"/>
<rect x="364.0776699029126" y="359.22330097087377" width="1.9271844660194173" height="1.9271844660194173" fill="rgb(255,255,255)"/>
<rect x="366.504854368932" y="359.22330097087377" width="1.9271844660194173" height="1.9271844660194173" fill="rgb(255,255,255)"/>
<rect x="388.34951456310677" y="378.6407766990291" width="1.9271844660194173" height="1.9271844660194173" fill="rgb(255,255,255)"/>
<rect x="383.49514563106794" y="381.06796116504853" width="1.9271844660194173" height="1.9271844660194173" fill="rgb(255,255,255)"/>
<rect x="390.7766990291262" y="381.06796116504853" width="1.9271844660194173" height="1.9271844660194173" fill="rgb(255,255,255)"/>
<rect x="393.2038834951456" y="381.06796116504853" width="1.9271844660194173" height="1.9271844660194173" fill="rgb(255,255,255)"/>
<rect x="385.92233009708735" y="383.49514563106794" width="1.9271844660194173" height="1.9271844660194173" fill="rgb(255,255,255)"/>
<rect x="407.7669902912621" y="405.3398058252427" width="1.9271844660194173" height="1.9271844660194173" fill="rgb(255,255,255)"/>
<rect x="410.19417475728153" y="405.3398058252427" width="1.9271844660194173" height="1.9271844660194173" fill="rgb(255,255,255)"/>
<rect x="412.62135922330094" y="405.3398058252427" width="1.9271844660194173" height="1.9271844660194173" fill="rgb(255,255,255)"/>
<rect x="415.04854368932035" y="405.3398058252427" width="1.9271844660194173" height="1.9271844660194173" fill="rgb(255,255,255)"/>
<rect x="417.47572815533977" y="405.3398058252427" width="1.9271844660194173" height="1.9271844660194173" fill="rgb(255,255,255)"/>
</svg>