<svg xmlns="http://www.w3.org/2000/svg" viewBox="0 0 2400 1800">
<rect width="100%" height="100%" fill="#0a0a0a"/>
<line x1="1172.9707415310352" y1="879.8861448140152" x2="975.0558581665287" y2="891.181371653093" stroke="#1a1a2e" stroke-width="0.5" opacity="0.3"/>
<line x1="1172.9707415310352" y1="879.8861448140152" x2="1347.947133088878" y2="835.3711204042648" stroke="#1a1a2e" stroke-width="0.5" opacity="0.3"/>
<line x1="1172.9707415310352" y1="879.8861448140152" x2="1024.444447943703" y2="813.3769724266261" stroke="#1a1a2e" stroke-width="0.5" opacity="0.3"/>
<line x1="1172.9707415310352" y1="879.8861448140152" x2="1211.4454143653818" y2="895.0445384255772" stroke="#1a1a2e" stroke-width="0.5" opacity="0.3"/>
<line x1="1172.9707415310352" y1="879.8861448140152" x2="1067.9467043333093" y2="746.4184444304741" stroke="#1a1a2e" stroke-width="0.5" opacity="0.3"/>
<line x1="1172.9707415310352" y1="879.8861448140152" x2="1169.3519551040295" y2="993.6198547995969" stroke="#1a1a2e" stroke-width="0.5" opacity="0.3"/>
<line x1="1172.9707415310352" y1="879.8861448140152" x2="1200.113021014312" y2="970.9990122796805" stroke="#1a1a2e" stroke-width="0.5" opacity="0.3"/>
<line x1="1172.9707415310352" y1="879.8861448140152" x2="1315.63646262955" y2="888.7329768521556" stroke="#1a1a2e" stroke-width="0.5" opacity="0.3"/>
<line x1="1172.9707415310352" y1="879.8861448140152" x2="1139.9765182113913" y2="815.1353259569179" stroke="#1a1a2e" stroke-width="0.5" opacity="0.3"/>
<line x1="1172.9707415310352" y1="879.8861448140152" x2="1047.8226281265127" y2="940.059150741844" stroke="#1a1a2e" stroke-width="0.5" opacity="0.3"/>
<line x1="1172.9707415310352" y1="879.8861448140152" x2="1057.6389971819603" y2="995.4743303936277" stroke="#1a1a2e" stroke-width="0.5" opacity="0.3"/>
<line x1="1172.9707415310352" y1="879.8861448140152" x2="1113.9214027921666" y2="853.6209109368905" stroke="#1a1a2e" stroke-width="0.5" opacity="0.3"/>
<line x1="1172.9707415310352" y1="879.8861448140152" x2="1264.4613190694583" y2="926.3578816688793" stroke="#1a1a2e" stroke-width="0.5" opacity="0.3"/>
<line x1="1172.9707415310352" y1="879.8861448140152" x2="1287.0228392795123" y2="978.9670442996786" stroke="#1a1a2e" stroke-width="0.5" opacity="0.3"/>
<line x1="1172.9707415310352" y1="879.8861448140152" x2="1311.188204821488" y2="857.2910179191788" stroke="#1a1a2e" stroke-width="0.5" opacity="0.3"/>
<line x1="1172.9707415310352" y1="879.8861448140152" x2="1229.883585177711" y2="809.3420593946062" stroke="#1a1a2e" stroke-width="0.5" opacity="0.3"/>
<line x1="975.0558581665287" y1="891.181371653093" x2="910.4115735189929" y2="941.8455228244353" stroke="#1a1a2e" stroke-width="0.5" opacity="0.3"/>
<line x1="975.0558581665287" y1="891.181371653093" x2="986.0980246599843" y2="859.4874224668989" stroke="#1a1a2e" stroke-width="0.5" opacity="0.3"/>
<line x1="975.0558581665287" y1="891.181371653093" x2="904.1852045647277" y2="883.0900070979818" stroke="#1a1a2e" stroke-width="0.5" opacity="0.3"/>
<line x1="1347.947133088878" y1="835.3711204042648" x2="1428.5002029322338" y2="907.0815625647829" stroke="#1a1a2e" stroke-width="0.5" opacity="0.3"/>
<line x1="1347.947133088878" y1="835.3711204042648" x2="1387.8178902334319" y2="817.1809993182263" stroke="#1a1a2e" stroke-width="0.5" opacity="0.3"/>
<line x1="1347.947133088878" y1="835.3711204042648" x2="1312.2628465108776" y2="765.0600762597779" stroke="#1a1a2e" stroke-width="0.5" opacity="0.3"/>
<line x1="1347.947133088878" y1="835.3711204042648" x2="1399.6282166052436" y2="740.8944716858878" stroke="#1a1a2e" stroke-width="0.5" opacity="0.3"/>
<line x1="1347.947133088878" y1="835.3711204042648" x2="1280.2987593685205" y2="908.2542915492315" stroke="#1a1a2e" stroke-width="0.5" opacity="0.3"/>
<line x1="1347.947133088878" y1="835.3711204042648" x2="1404.1106289108002" y2="848.7474671297123" stroke="#1a1a2e" stroke-width="0.5" opacity="0.3"/>
<line x1="1428.5002029322338" y1="907.0815625647829" x2="1338.0801985702533" y2="803.9216510035408" stroke="#1a1a2e" stroke-width="0.5" opacity="0.3"/>
<line x1="1428.5002029322338" y1="907.0815625647829" x2="1473.584753337679" y2="920.0353742969572" stroke="#1a1a2e" stroke-width="0.5" opacity="0.3"/>
<line x1="1428.5002029322338" y1="907.0815625647829" x2="1476.7234940338785" y2="967.7300209170787" stroke="#1a1a2e" stroke-width="0.5" opacity="0.3"/>
<line x1="1428.5002029322338" y1="907.0815625647829" x2="1369.2600884860465" y2="1077.5960693043205" stroke="#1a1a2e" stroke-width="0.5" opacity="0.3"/>
<line x1="1428.5002029322338" y1="907.0815625647829" x2="1492.7360693521696" y2="860.9836517324349" stroke="#1a1a2e" stroke-width="0.5" opacity="0.3"/>
<line x1="1473.584753337679" y1="920.0353742969572" x2="1510.3746102028895" y2="929.1511369162439" stroke="#1a1a2e" stroke-width="0.5" opacity="0.3"/>
<line x1="1476.7234940338785" y1="967.7300209170787" x2="1485.7877254752073" y2="1020.5643171105189" stroke="#1a1a2e" stroke-width="0.5" opacity="0.3"/>
<line x1="1369.2600884860465" y1="1077.5960693043205" x2="1380.0458652236696" y2="1129.0332204620659" stroke="#1a1a2e" stroke-width="0.5" opacity="0.3"/>
<line x1="1369.2600884860465" y1="1077.5960693043205" x2="1294.8267376344002" y2="1161.9299479093295" stroke="#1a1a2e" stroke-width="0.5" opacity="0.3"/>
<line x1="1294.8267376344002" y1="1161.9299479093295" x2="1324.9911540032224" y2="1188.1356504689463" stroke="#1a1a2e" stroke-width="0.5" opacity="0.3"/>
<line x1="1294.8267376344002" y1="1161.9299479093295" x2="1213.2178458482954" y2="1188.1550342986766" stroke="#1a1a2e" stroke-width="0.5" opacity="0.3"/>
<line x1="1294.8267376344002" y1="1161.9299479093295" x2="1330.137052063655" y2="1146.8374548448428" stroke="#1a1a2e" stroke-width="0.5" opacity="0.3"/>
<line x1="1387.8178902334319" y1="817.1809993182263" x2="1414.8158459314477" y2="936.8356983867432" stroke="#1a1a2e" stroke-width="0.5" opacity="0.3"/>
<line x1="1387.8178902334319" y1="817.1809993182263" x2="1367.5734975513903" y2="697.8738733652746" stroke="#1a1a2e" stroke-width="0.5" opacity="0.3"/>
<line x1="1387.8178902334319" y1="817.1809993182263" x2="1365.6799093258865" y2="788.6309765088048" stroke="#1a1a2e" stroke-width="0.5" opacity="0.3"/>
<line x1="1414.8158459314477" y1="936.8356983867432" x2="1431.4310352015225" y2="1036.1204302317637" stroke="#1a1a2e" stroke-width="0.5" opacity="0.3"/>
<line x1="1414.8158459314477" y1="936.8356983867432" x2="1406.214789269402" y2="992.9203045180209" stroke="#1a1a2e" stroke-width="0.5" opacity="0.3"/>
<line x1="1414.8158459314477" y1="936.8356983867432" x2="1404.1891471585877" y2="886.5977486436516" stroke="#1a1a2e" stroke-width="0.5" opacity="0.3"/>
<line x1="1414.8158459314477" y1="936.8356983867432" x2="1388.0095037490107" y2="955.6855398693103" stroke="#1a1a2e" stroke-width="0.5" opacity="0.3"/>
<line x1="1367.5734975513903" y1="697.8738733652746" x2="1406.7994131108874" y2="662.7885351984683" stroke="#1a1a2e" stroke-width="0.5" opacity="0.3"/>
<line x1="1367.5734975513903" y1="697.8738733652746" x2="1285.4774239733356" y2="658.1442329097504" stroke="#1a1a2e" stroke-width="0.5" opacity="0.3"/>
<line x1="1285.4774239733356" y1="658.1442329097504" x2="1211.4269491036257" y2="640.1289453321427" stroke="#1a1a2e" stroke-width="0.5" opacity="0.3"/>
<line x1="1365.6799093258865" y1="788.6309765088048" x2="1433.523368897255" y2="829.5420533775642" stroke="#1a1a2e" stroke-width="0.5" opacity="0.3"/>
<line x1="1365.6799093258865" y1="788.6309765088048" x2="1280.4461197794499" y2="690.9193829182531" stroke="#1a1a2e" stroke-width="0.5" opacity="0.3"/>
<line x1="1280.4461197794499" y1="690.9193829182531" x2="1209.864977042542" y2="607.5870004821187" stroke="#1a1a2e" stroke-width="0.5" opacity="0.3"/>
<line x1="1312.2628465108776" y1="765.0600762597779" x2="1248.2841430498795" y2="710.1659198807874" stroke="#1a1a2e" stroke-width="0.5" opacity="0.3"/>
<line x1="1248.2841430498795" y1="710.1659198807874" x2="1158.1007088257345" y2="694.2749874955373" stroke="#1a1a2e" stroke-width="0.5" opacity="0.3"/>
<line x1="1248.2841430498795" y1="710.1659198807874" x2="1296.8678308722208" y2="627.8035306050982" stroke="#1a1a2e" stroke-width="0.5" opacity="0.3"/>
<line x1="1248.2841430498795" y1="710.1659198807874" x2="1257.21476904334" y2="740.5710440327495" stroke="#1a1a2e" stroke-width="0.5" opacity="0.3"/>
<line x1="1248.2841430498795" y1="710.1659198807874" x2="1191.430171690557" y2="722.1219514409796" stroke="#1a1a2e" stroke-width="0.5" opacity="0.3"/>
<line x1="1248.2841430498795" y1="710.1659198807874" x2="1291.6769444409265" y2="722.8427846552081" stroke="#1a1a2e" stroke-width="0.5" opacity="0.3"/>
<line x1="1399.6282166052436" y1="740.8944716858878" x2="1367.7015191586647" y2="659.5827350367293" stroke="#1a1a2e" stroke-width="0.5" opacity="0.3"/>
<line x1="1399.6282166052436" y1="740.8944716858878" x2="1364.6440106836717" y2="731.7843072648559" stroke="#1a1a2e" stroke-width="0.5" opacity="0.3"/>
<line x1="1399.6282166052436" y1="740.8944716858878" x2="1450.6005558882619" y2="745.3288373966523" stroke="#1a1a2e" stroke-width="0.5" opacity="0.3"/>
<line x1="1280.2987593685205" y1="908.2542915492315" x2="1257.2854189977095" y2="996.8814074444444" stroke="#1a1a2e" stroke-width="0.5" opacity="0.3"/>
<line x1="1280.2987593685205" y1="908.2542915492315" x2="1233.982422404466" y2="979.0004366986174" stroke="#1a1a2e" stroke-width="0.5" opacity="0.3"/>
<line x1="1257.2854189977095" y1="996.8814074444444" x2="1138.9601661254314" y2="1055.3486128983125" stroke="#1a1a2e" stroke-width="0.5" opacity="0.3"/>
<line x1="1257.2854189977095" y1="996.8814074444444" x2="1287.3130412860455" y2="843.3044519516134" stroke="#1a1a2e" stroke-width="0.5" opacity="0.3"/>
<line x1="1257.2854189977095" y1="996.8814074444444" x2="1265.7362095692324" y2="1086.8038238806494" stroke="#1a1a2e" stroke-width="0.5" opacity="0.3"/>
<line x1="1138.9601661254314" y1="1055.3486128983125" x2="1209.9549991353088" y2="1150.6871562496865" stroke="#1a1a2e" stroke-width="0.5" opacity="0.3"/>
<line x1="1138.9601661254314" y1="1055.3486128983125" x2="1081.7962078617534" y2="1158.03339295346" stroke="#1a1a2e" stroke-width="0.5" opacity="0.3"/>
<line x1="1138.9601661254314" y1="1055.3486128983125" x2="1060.2883055480684" y2="1029.5087771625306" stroke="#1a1a2e" stroke-width="0.5" opacity="0.3"/>
<line x1="1138.9601661254314" y1="1055.3486128983125" x2="1057.940998324339" y2="885.830120754611" stroke="#1a1a2e" stroke-width="0.5" opacity="0.3"/>
<line x1="1138.9601661254314" y1="1055.3486128983125" x2="1162.4312554718106" y2="1080.2348495174854" stroke="#1a1a2e" stroke-width="0.5" opacity="0.3"/>
<line x1="1287.3130412860455" y1="843.3044519516134" x2="1392.05924870477" y2="778.936857439166" stroke="#1a1a2e" stroke-width="0.5" opacity="0.3"/>
<line x1="1287.3130412860455" y1="843.3044519516134" x2="1327.5257565850782" y2="708.3515748239142" stroke="#1a1a2e" stroke-width="0.5" opacity="0.3"/>
<line x1="1327.5257565850782" y1="708.3515748239142" x2="1411.332627587448" y2="703.3507420246156" stroke="#1a1a2e" stroke-width="0.5" opacity="0.3"/>
<line x1="1327.5257565850782" y1="708.3515748239142" x2="1268.7417718984307" y2="607.4950271692948" stroke="#1a1a2e" stroke-width="0.5" opacity="0.3"/>
<line x1="1265.7362095692324" y1="1086.8038238806494" x2="1286.8607584631059" y2="1122.1412929580088" stroke="#1a1a2e" stroke-width="0.5" opacity="0.3"/>
<line x1="1265.7362095692324" y1="1086.8038238806494" x2="1246.5277701562375" y2="1183.7188721218354" stroke="#1a1a2e" stroke-width="0.5" opacity="0.3"/>
<line x1="1246.5277701562375" y1="1183.7188721218354" x2="1181.2870838379265" y2="1212.1110057048093" stroke="#1a1a2e" stroke-width="0.5" opacity="0.3"/>
<line x1="1162.4312554718106" y1="1080.2348495174854" x2="1163.2329861957664" y2="1045.4145962380983" stroke="#1a1a2e" stroke-width="0.5" opacity="0.3"/>
<line x1="1162.4312554718106" y1="1080.2348495174854" x2="1221.7973846166137" y2="1097.9280005146363" stroke="#1a1a2e" stroke-width="0.5" opacity="0.3"/>
<line x1="1060.2883055480684" y1="1029.5087771625306" x2="1107.9343620512063" y2="881.358600264888" stroke="#16213e" stroke-width="1.5" opacity="0.6"/>
<line x1="1057.940998324339" y1="885.830120754611" x2="986.0980246599843" y2="859.4874224668989" stroke="#16213e" stroke-width="1.5" opacity="0.6"/>
<line x1="1233.982422404466" y1="979.0004366986174" x2="1138.9601661254314" y2="1055.3486128983125" stroke="#0f3460" stroke-width="1.0" opacity="0.5"/>
<line x1="1233.982422404466" y1="979.0004366986174" x2="1287.3130412860455" y2="843.3044519516134" stroke="#0f3460" stroke-width="1.0" opacity="0.5"/>
<line x1="1233.982422404466" y1="979.0004366986174" x2="1265.7362095692324" y2="1086.8038238806494" stroke="#0f3460" stroke-width="1.0" opacity="0.5"/>
<line x1="1024.444447943703" y1="813.3769724266261" x2="962.2628770112051" y2="785.096768707274" stroke="#1a1a2e" stroke-width="0.5" opacity="0.3"/>
<line x1="1024.444447943703" y1="813.3769724266261" x2="1030.2187791062604" y2="835.5067463223818" stroke="#1a1a2e" stroke-width="0.5" opacity="0.3"/>
<line x1="1030.2187791062604" y1="835.5067463223818" x2="980.4335893734706" y2="820.0992343845696" stroke="#1a1a2e" stroke-width="0.5" opacity="0.3"/>
<line x1="1030.2187791062604" y1="835.5067463223818" x2="1131.589727336179" y2="777.6611669955944" stroke="#1a1a2e" stroke-width="0.5" opacity="0.3"/>
<line x1="1030.2187791062604" y1="835.5067463223818" x2="944.6969013684185" y2="843.9461876505211" stroke="#1a1a2e" stroke-width="0.5" opacity="0.3"/>
<line x1="1030.2187791062604" y1="835.5067463223818" x2="1139.7320998523044" y2="921.0425434018786" stroke="#1a1a2e" stroke-width="0.5" opacity="0.3"/>
<line x1="1030.2187791062604" y1="835.5067463223818" x2="1027.9824935366535" y2="754.0893923857485" stroke="#1a1a2e" stroke-width="0.5" opacity="0.3"/>
<line x1="1030.2187791062604" y1="835.5067463223818" x2="941.1321221611488" y2="888.6118517583001" stroke="#1a1a2e" stroke-width="0.5" opacity="0.3"/>
<line x1="1030.2187791062604" y1="835.5067463223818" x2="949.1799721280094" y2="930.5257231820339" stroke="#1a1a2e" stroke-width="0.5" opacity="0.3"/>
<line x1="1030.2187791062604" y1="835.5067463223818" x2="1110.6177183343311" y2="701.021987035347" stroke="#1a1a2e" stroke-width="0.5" opacity="0.3"/>
<line x1="1110.6177183343311" y1="701.021987035347" x2="1132.496598438204" y2="634.9429406559232" stroke="#1a1a2e" stroke-width="0.5" opacity="0.3"/>
<line x1="1211.4454143653818" y1="895.0445384255772" x2="1251.573340095582" y2="841.7025780697697" stroke="#1a1a2e" stroke-width="0.5" opacity="0.3"/>
<line x1="1211.4454143653818" y1="895.0445384255772" x2="1228.9162986444842" y2="1017.0042823339769" stroke="#1a1a2e" stroke-width="0.5" opacity="0.3"/>
<line x1="1228.9162986444842" y1="1017.0042823339769" x2="1322.54797949498" y2="1040.4174959709135" stroke="#1a1a2e" stroke-width="0.5" opacity="0.3"/>
<line x1="1228.9162986444842" y1="1017.0042823339769" x2="1201.766791638023" y2="1119.7446036536487" stroke="#1a1a2e" stroke-width="0.5" opacity="0.3"/>
<line x1="1228.9162986444842" y1="1017.0042823339769" x2="1181.8410168830942" y2="950.5119719582714" stroke="#1a1a2e" stroke-width="0.5" opacity="0.3"/>
<line x1="1067.9467043333093" y1="746.4184444304741" x2="1062.325553905934" y2="796.9616456380311" stroke="#1a1a2e" stroke-width="0.5" opacity="0.3"/>
<line x1="1067.9467043333093" y1="746.4184444304741" x2="1052.7278211777873" y2="687.0135018452615" stroke="#1a1a2e" stroke-width="0.5" opacity="0.3"/>
<line x1="1067.9467043333093" y1="746.4184444304741" x2="985.4998155758095" y2="741.4855957229689" stroke="#1a1a2e" stroke-width="0.5" opacity="0.3"/>
<line x1="1067.9467043333093" y1="746.4184444304741" x2="1052.2344866679493" y2="651.7767777910954" stroke="#1a1a2e" stroke-width="0.5" opacity="0.3"/>
<line x1="1062.325553905934" y1="796.9616456380311" x2="1034.9386688119525" y2="782.824772256114" stroke="#1a1a2e" stroke-width="0.5" opacity="0.3"/>
<line x1="1052.7278211777873" y1="687.0135018452615" x2="1007.9923203153943" y2="669.3378676044465" stroke="#1a1a2e" stroke-width="0.5" opacity="0.3"/>
<line x1="1052.7278211777873" y1="687.0135018452615" x2="1092.8111254377907" y2="661.4347049944223" stroke="#1a1a2e" stroke-width="0.5" opacity="0.3"/>
<line x1="985.4998155758095" y1="741.4855957229689" x2="996.5121731667899" y2="774.636356191655" stroke="#1a1a2e" stroke-width="0.5" opacity="0.3"/>
<line x1="985.4998155758095" y1="741.4855957229689" x2="928.271550761615" y2="753.652909722571" stroke="#1a1a2e" stroke-width="0.5" opacity="0.3"/>
<line x1="985.4998155758095" y1="741.4855957229689" x2="960.5206009105294" y2="709.9959853063708" stroke="#1a1a2e" stroke-width="0.5" opacity="0.3"/>
<line x1="985.4998155758095" y1="741.4855957229689" x2="922.5575150192585" y2="801.1170878636987" stroke="#1a1a2e" stroke-width="0.5" opacity="0.3"/>
<line x1="985.4998155758095" y1="741.4855957229689" x2="1073.6859576782163" y2="713.9142318647342" stroke="#1a1a2e" stroke-width="0.5" opacity="0.3"/>
<line x1="1052.2344866679493" y1="651.7767777910954" x2="1078.8181725252252" y2="616.8480524445598" stroke="#1a1a2e" stroke-width="0.5" opacity="0.3"/>
<line x1="1169.3519551040295" y1="993.6198547995969" x2="1133.3297155996395" y2="951.7208185084694" stroke="#1a1a2e" stroke-width="0.5" opacity="0.3"/>
<line x1="1169.3519551040295" y1="993.6198547995969" x2="1208.3785938670717" y2="1056.946804467523" stroke="#1a1a2e" stroke-width="0.5" opacity="0.3"/>
<line x1="1133.3297155996395" y1="951.7208185084694" x2="1099.6808800400024" y2="940.481691641408" stroke="#1a1a2e" stroke-width="0.5" opacity="0.3"/>
<line x1="1133.3297155996395" y1="951.7208185084694" x2="1063.3650106848456" y2="1073.6942678177838" stroke="#1a1a2e" stroke-width="0.5" opacity="0.3"/>
<line x1="1133.3297155996395" y1="951.7208185084694" x2="1381.8516823480534" y2="914.625051637888" stroke="#1a1a2e" stroke-width="0.5" opacity="0.3"/>
<line x1="1133.3297155996395" y1="951.7208185084694" x2="1083.3889578603053" y2="1020.4891521428543" stroke="#1a1a2e" stroke-width="0.5" opacity="0.3"/>
<line x1="1133.3297155996395" y1="951.7208185084694" x2="1152.5083382100834" y2="847.6926586916574" stroke="#1a1a2e" stroke-width="0.5" opacity="0.3"/>
<line x1="1133.3297155996395" y1="951.7208185084694" x2="1087.0369511582735" y2="780.5138239840118" stroke="#1a1a2e" stroke-width="0.5" opacity="0.3"/>
<line x1="1133.3297155996395" y1="951.7208185084694" x2="1025.0101516349907" y2="870.9370081328764" stroke="#1a1a2e" stroke-width="0.5" opacity="0.3"/>
<line x1="1133.3297155996395" y1="951.7208185084694" x2="1185.8938274249886" y2="1026.2257151015694" stroke="#1a1a2e" stroke-width="0.5" opacity="0.3"/>
<line x1="1208.3785938670717" y1="1056.946804467523" x2="1146.3812642525963" y2="1159.6371349292847" stroke="#1a1a2e" stroke-width="0.5" opacity="0.3"/>
<line x1="1208.3785938670717" y1="1056.946804467523" x2="1144.9195714242142" y2="1014.9118209974957" stroke="#1a1a2e" stroke-width="0.5" opacity="0.3"/>
<line x1="1208.3785938670717" y1="1056.946804467523" x2="1159.2191439836365" y2="970.9739167379444" stroke="#1a1a2e" stroke-width="0.5" opacity="0.3"/>
<line x1="1208.3785938670717" y1="1056.946804467523" x2="1333.590163332246" y2="1105.1492806446565" stroke="#1a1a2e" stroke-width="0.5" opacity="0.3"/>
<line x1="1208.3785938670717" y1="1056.946804467523" x2="1319.9169700883326" y2="1074.8603987811425" stroke="#1a1a2e" stroke-width="0.5" opacity="0.3"/>
<line x1="1208.3785938670717" y1="1056.946804467523" x2="1110.3162467487327" y2="999.3043021729314" stroke="#1a1a2e" stroke-width="0.5" opacity="0.3"/>
<line x1="1208.3785938670717" y1="1056.946804467523" x2="1247.1947759276525" y2="1124.3939278880982" stroke="#1a1a2e" stroke-width="0.5" opacity="0.3"/>
<line x1="1159.2191439836365" y1="970.9739167379444" x2="1190.8258505769857" y2="918.8843985964934" stroke="#1a1a2e" stroke-width="0.5" opacity="0.3"/>
<line x1="1110.3162467487327" y1="999.3043021729314" x2="1133.7461162247591" y2="1101.5428858982752" stroke="#1a1a2e" stroke-width="0.5" opacity="0.3"/>
<line x1="1110.3162467487327" y1="999.3043021729314" x2="1009.5435318914873" y2="1024.9126306973671" stroke="#1a1a2e" stroke-width="0.5" opacity="0.3"/>
<line x1="1110.3162467487327" y1="999.3043021729314" x2="1049.9341759095978" y2="915.7993324574693" stroke="#1a1a2e" stroke-width="0.5" opacity="0.3"/>
<line x1="1200.113021014312" y1="970.9990122796805" x2="1234.8558984321087" y2="914.0650732383112" stroke="#1a1a2e" stroke-width="0.5" opacity="0.3"/>
<line x1="1200.113021014312" y1="970.9990122796805" x2="1314.2983925686576" y2="821.7804608356463" stroke="#1a1a2e" stroke-width="0.5" opacity="0.3"/>
<line x1="1200.113021014312" y1="970.9990122796805" x2="1018.6404667638218" y2="1083.8125932452126" stroke="#1a1a2e" stroke-width="0.5" opacity="0.3"/>
<line x1="1200.113021014312" y1="970.9990122796805" x2="1089.6885287148837" y2="1059.890423614673" stroke="#1a1a2e" stroke-width="0.5" opacity="0.3"/>
<line x1="1200.113021014312" y1="970.9990122796805" x2="1203.141658149787" y2="1000.7793475016944" stroke="#1a1a2e" stroke-width="0.5" opacity="0.3"/>
<line x1="1200.113021014312" y1="970.9990122796805" x2="1363.7820223158692" y2="988.5356024144576" stroke="#1a1a2e" stroke-width="0.5" opacity="0.3"/>
<line x1="1234.8558984321087" y1="914.0650732383112" x2="1119.4101604373905" y2="801.2867022949977" stroke="#1a1a2e" stroke-width="0.5" opacity="0.3"/>
<line x1="1234.8558984321087" y1="914.0650732383112" x2="1302.2914802514592" y2="951.5164969383344" stroke="#1a1a2e" stroke-width="0.5" opacity="0.3"/>
<line x1="1234.8558984321087" y1="914.0650732383112" x2="1217.1217547378144" y2="941.6830972941267" stroke="#1a1a2e" stroke-width="0.5" opacity="0.3"/>
<line x1="1314.2983925686576" y1="821.7804608356463" x2="1426.1148643777547" y2="792.627553916963" stroke="#1a1a2e" stroke-width="0.5" opacity="0.3"/>
<line x1="1314.2983925686576" y1="821.7804608356463" x2="1367.3817549064872" y2="859.4314635253085" stroke="#1a1a2e" stroke-width="0.5" opacity="0.3"/>
<line x1="1314.2983925686576" y1="821.7804608356463" x2="1220.9624890320301" y2="740.9871507842478" stroke="#1a1a2e" stroke-width="0.5" opacity="0.3"/>
<line x1="1220.9624890320301" y1="740.9871507842478" x2="1228.5104581801927" y2="682.8004245527253" stroke="#1a1a2e" stroke-width="0.5" opacity="0.3"/>
<line x1="1220.9624890320301" y1="740.9871507842478" x2="1198.6723630326362" y2="691.997174288846" stroke="#1a1a2e" stroke-width="0.5" opacity="0.3"/>
<line x1="1220.9624890320301" y1="740.9871507842478" x2="1317.4909284849564" y2="669.3887543837452" stroke="#1a1a2e" stroke-width="0.5" opacity="0.3"/>
<line x1="1220.9624890320301" y1="740.9871507842478" x2="1173.036012207247" y2="661.67584667834" stroke="#1a1a2e" stroke-width="0.5" opacity="0.3"/>
<line x1="1220.9624890320301" y1="740.9871507842478" x2="1204.4390694172664" y2="769.7068493127334" stroke="#1a1a2e" stroke-width="0.5" opacity="0.3"/>
<line x1="1220.9624890320301" y1="740.9871507842478" x2="1240.1042156048231" y2="774.2987853213682" stroke="#1a1a2e" stroke-width="0.5" opacity="0.3"/>
<line x1="1220.9624890320301" y1="740.9871507842478" x2="1107.9343620512063" y2="881.358600264888" stroke="#1a1a2e" stroke-width="0.5" opacity="0.3"/>
<line x1="1203.141658149787" y1="1000.7793475016944" x2="1115.395702526931" y2="1036.100124827742" stroke="#1a1a2e" stroke-width="0.5" opacity="0.3"/>
<line x1="1115.395702526931" y1="1036.100124827742" x2="1115.4086689943533" y2="920.8154110141245" stroke="#1a1a2e" stroke-width="0.5" opacity="0.3"/>
<line x1="1115.395702526931" y1="1036.100124827742" x2="1061.146402694888" y2="1115.9876450729828" stroke="#1a1a2e" stroke-width="0.5" opacity="0.3"/>
<line x1="1115.395702526931" y1="1036.100124827742" x2="1101.7572579367175" y2="1093.7250501994743" stroke="#1a1a2e" stroke-width="0.5" opacity="0.3"/>
<line x1="1018.6404667638218" y1="1083.8125932452126" x2="1012.8599343212466" y2="1131.0565864756609" stroke="#1a1a2e" stroke-width="0.5" opacity="0.3"/>
<line x1="1018.6404667638218" y1="1083.8125932452126" x2="951.3337803006985" y2="1065.1693742389511" stroke="#1a1a2e" stroke-width="0.5" opacity="0.3"/>
<line x1="1363.7820223158692" y1="988.5356024144576" x2="1443.1269423418858" y2="1005.4030376629283" stroke="#1a1a2e" stroke-width="0.5" opacity="0.3"/>
<line x1="1315.63646262955" y1="888.7329768521556" x2="1360.1557827550998" y2="1017.6342452368508" stroke="#1a1a2e" stroke-width="0.5" opacity="0.3"/>
<line x1="1315.63646262955" y1="888.7329768521556" x2="1283.389921871581" y2="764.5092284320248" stroke="#1a1a2e" stroke-width="0.5" opacity="0.3"/>
<line x1="1315.63646262955" y1="888.7329768521556" x2="1290.7456844017943" y2="880.6596224115979" stroke="#1a1a2e" stroke-width="0.5" opacity="0.3"/>
<line x1="1290.7456844017943" y1="880.6596224115979" x2="1258.8604115169003" y2="1031.31868280483" stroke="#1a1a2e" stroke-width="0.5" opacity="0.3"/>
<line x1="1258.8604115169003" y1="1031.31868280483" x2="1171.2364304404687" y2="1128.564974923678" stroke="#1a1a2e" stroke-width="0.5" opacity="0.3"/>
<line x1="1283.389921871581" y1="764.5092284320248" x2="1249.8933739658848" y2="654.4705340058375" stroke="#1a1a2e" stroke-width="0.5" opacity="0.3"/>
<line x1="1290.7456844017943" y1="880.6596224115979" x2="1277.2903945996259" y2="806.1885330071323" stroke="#1a1a2e" stroke-width="0.5" opacity="0.3"/>
<line x1="1290.7456844017943" y1="880.6596224115979" x2="1352.452822090451" y2="893.220948917751" stroke="#1a1a2e" stroke-width="0.5" opacity="0.3"/>
<line x1="1139.9765182113913" y1="815.1353259569179" x2="1152.4880101774786" y2="737.6245507373125" stroke="#1a1a2e" stroke-width="0.5" opacity="0.3"/>
<line x1="1139.9765182113913" y1="815.1353259569179" x2="1117.502814014146" y2="746.6894549435807" stroke="#1a1a2e" stroke-width="0.5" opacity="0.3"/>
<line x1="1139.9765182113913" y1="815.1353259569179" x2="995.8295273608821" y2="915.7346001231609" stroke="#1a1a2e" stroke-width="0.5" opacity="0.3"/>
<line x1="1139.9765182113913" y1="815.1353259569179" x2="1168.0471659548284" y2="771.0062813038445" stroke="#1a1a2e" stroke-width="0.5" opacity="0.3"/>
<line x1="1047.8226281265127" y1="940.059150741844" x2="1012.943523577206" y2="975.9092224916251" stroke="#1a1a2e" stroke-width="0.5" opacity="0.3"/>
<line x1="1047.8226281265127" y1="940.059150741844" x2="986.1250628662428" y2="992.1288690476333" stroke="#1a1a2e" stroke-width="0.5" opacity="0.3"/>
<line x1="1047.8226281265127" y1="940.059150741844" x2="1071.6152438786753" y2="956.3890417695342" stroke="#1a1a2e" stroke-width="0.5" opacity="0.3"/>
<line x1="1047.8226281265127" y1="940.059150741844" x2="1013.6530646388695" y2="944.6196228565375" stroke="#1a1a2e" stroke-width="0.5" opacity="0.3"/>
<line x1="1047.8226281265127" y1="940.059150741844" x2="1040.97712164206" y2="970.5903759324939" stroke="#1a1a2e" stroke-width="0.5" opacity="0.3"/>
<line x1="1047.8226281265127" y1="940.059150741844" x2="973.856061795788" y2="961.3512679819659" stroke="#1a1a2e" stroke-width="0.5" opacity="0.3"/>
<line x1="1047.8226281265127" y1="940.059150741844" x2="1066.4274116644795" y2="851.1179536488296" stroke="#1a1a2e" stroke-width="0.5" opacity="0.3"/>
<line x1="996.5121731667899" y1="774.636356191655" x2="1034.9386688119525" y2="782.824772256114" stroke="#16213e" stroke-width="1.5" opacity="0.6"/>
<line x1="1012.943523577206" y1="975.9092224916251" x2="986.1250628662428" y2="992.1288690476333" stroke="#0f3460" stroke-width="1.0" opacity="0.5"/>
<line x1="1012.943523577206" y1="975.9092224916251" x2="1071.6152438786753" y2="956.3890417695342" stroke="#0f3460" stroke-width="1.0" opacity="0.5"/>
<line x1="1012.943523577206" y1="975.9092224916251" x2="1013.6530646388695" y2="944.6196228565375" stroke="#0f3460" stroke-width="1.0" opacity="0.5"/>
<line x1="1012.943523577206" y1="975.9092224916251" x2="1040.97712164206" y2="970.5903759324939" stroke="#0f3460" stroke-width="1.0" opacity="0.5"/>
<line x1="1012.943523577206" y1="975.9092224916251" x2="973.856061795788" y2="961.3512679819659" stroke="#0f3460" stroke-width="1.0" opacity="0.5"/>
<line x1="1172.9707415310352" y1="879.8861448140152" x2="1102.4926096649071" y2="826.4811459986622" stroke="#1a1a2e" stroke-width="0.5" opacity="0.3"/>
<line x1="1381.8516823480534" y1="914.625051637888" x2="1435.7375192738457" y2="963.7158226474901" stroke="#1a1a2e" stroke-width="0.5" opacity="0.3"/>
<line x1="1381.8516823480534" y1="914.625051637888" x2="1458.0292191967226" y2="882.4036810041858" stroke="#1a1a2e" stroke-width="0.5" opacity="0.3"/>
<line x1="1381.8516823480534" y1="914.625051637888" x2="1469.1539012629926" y2="826.8481273250746" stroke="#1a1a2e" stroke-width="0.5" opacity="0.3"/>
<line x1="1083.3889578603053" y1="1020.4891521428543" x2="1027.1716837284998" y2="1052.386309533798" stroke="#1a1a2e" stroke-width="0.5" opacity="0.3"/>
<line x1="1152.5083382100834" y1="847.6926586916574" x2="1179.1794398321294" y2="807.5470107887597" stroke="#1a1a2e" stroke-width="0.5" opacity="0.3"/>
<line x1="1087.0369511582735" y1="780.5138239840118" x2="1027.5596281104183" y2="717.2204591772476" stroke="#1a1a2e" stroke-width="0.5" opacity="0.3"/>
<line x1="1333.590163332246" y1="1105.1492806446565" x2="1407.7676642546176" y2="1102.18480914283" stroke="#1a1a2e" stroke-width="0.5" opacity="0.3"/>
<line x1="1319.9169700883326" y1="1074.8603987811425" x2="1389.4539594889661" y2="1052.214381785152" stroke="#1a1a2e" stroke-width="0.5" opacity="0.3"/>
<line x1="1110.3162467487327" y1="999.3043021729314" x2="1082.2084939717524" y2="908.5255931444411" stroke="#1a1a2e" stroke-width="0.5" opacity="0.3"/>
<line x1="1234.8558984321087" y1="914.0650732383112" x2="1320.406155752157" y2="993.0841623469047" stroke="#1a1a2e" stroke-width="0.5" opacity="0.3"/>
<line x1="1217.1217547378144" y1="941.6830972941267" x2="1336.5696435705236" y2="965.4284490274202" stroke="#1a1a2e" stroke-width="0.5" opacity="0.3"/>
<line x1="1217.1217547378144" y1="941.6830972941267" x2="1243.0277524329276" y2="943.8302176165746" stroke="#1a1a2e" stroke-width="0.5" opacity="0.3"/>
<line x1="1217.1217547378144" y1="941.6830972941267" x2="1142.8133304026433" y2="881.4941144088837" stroke="#1a1a2e" stroke-width="0.5" opacity="0.3"/>
<line x1="1217.1217547378144" y1="941.6830972941267" x2="1024.6569687885542" y2="900.524801770017" stroke="#1a1a2e" stroke-width="0.5" opacity="0.3"/>
<line x1="1217.1217547378144" y1="941.6830972941267" x2="1221.7505224316155" y2="867.212510323376" stroke="#1a1a2e" stroke-width="0.5" opacity="0.3"/>
<line x1="1217.1217547378144" y1="941.6830972941267" x2="1285.540765819157" y2="1053.904980509499" stroke="#1a1a2e" stroke-width="0.5" opacity="0.3"/>
<line x1="1217.1217547378144" y1="941.6830972941267" x2="1251.5844237184588" y2="880.248848159673" stroke="#1a1a2e" stroke-width="0.5" opacity="0.3"/>
<line x1="1217.1217547378144" y1="941.6830972941267" x2="1214.8011176951773" y2="835.1230125045936" stroke="#1a1a2e" stroke-width="0.5" opacity="0.3"/>
<line x1="1217.1217547378144" y1="941.6830972941267" x2="1338.7662020704465" y2="931.9932079520631" stroke="#1a1a2e" stroke-width="0.5" opacity="0.3"/>
<line x1="1217.1217547378144" y1="941.6830972941267" x2="1306.4585793414935" y2="922.1878544261835" stroke="#1a1a2e" stroke-width="0.5" opacity="0.3"/>
<line x1="1217.1217547378144" y1="941.6830972941267" x2="1187.5567596819458" y2="850.1871514399515" stroke="#1a1a2e" stroke-width="0.5" opacity="0.3"/>
<line x1="1217.1217547378144" y1="941.6830972941267" x2="1166.5704021076351" y2="907.4796853643674" stroke="#1a1a2e" stroke-width="0.5" opacity="0.3"/>
<line x1="1217.1217547378144" y1="941.6830972941267" x2="1094.541649282665" y2="980.2455298112009" stroke="#1a1a2e" stroke-width="0.5" opacity="0.3"/>
<line x1="1217.1217547378144" y1="941.6830972941267" x2="1292.279462393959" y2="1016.7105596563628" stroke="#1a1a2e" stroke-width="0.5" opacity="0.3"/>
<line x1="1217.1217547378144" y1="941.6830972941267" x2="1241.0999235015602" y2="1056.67016757479" stroke="#1a1a2e" stroke-width="0.5" opacity="0.3"/>
<line x1="1217.1217547378144" y1="941.6830972941267" x2="1192.0456944882178" y2="1080.0057180832373" stroke="#1a1a2e" stroke-width="0.5" opacity="0.3"/>
<line x1="1314.2983925686576" y1="821.7804608356463" x2="1345.6901740087274" y2="763.053387114496" stroke="#1a1a2e" stroke-width="0.5" opacity="0.3"/>
<line x1="1203.141658149787" y1="1000.7793475016944" x2="1264.1745310388528" y2="966.3220276581162" stroke="#1a1a2e" stroke-width="0.5" opacity="0.3"/>
<line x1="1089.6885287148837" y1="1059.890423614673" x2="967.2705339229378" y2="1029.9718377476715" stroke="#1a1a2e" stroke-width="0.5" opacity="0.3"/>
<line x1="1089.6885287148837" y1="1059.890423614673" x2="1102.6271832825937" y2="1133.5376292394883" stroke="#1a1a2e" stroke-width="0.5" opacity="0.3"/>
<line x1="1018.6404667638218" y1="1083.8125932452126" x2="976.3593929420224" y2="1100.7939502481393" stroke="#1a1a2e" stroke-width="0.5" opacity="0.3"/>
<circle cx="1172.9707415310352" cy="879.8861448140152" r="11.0" fill="#e94560" opacity="0.7"/>
<circle cx="975.0558581665287" cy="891.181371653093" r="9.5" fill="#0f4c75" opacity="0.7"/>
<circle cx="1347.947133088878" cy="835.3711204042648" r="9.5" fill="#0f4c75" opacity="0.7"/>
<circle cx="1024.444447943703" cy="813.3769724266261" r="9.5" fill="#0f4c75" opacity="0.7"/>
<circle cx="1211.4454143653818" cy="895.0445384255772" r="9.5" fill="#0f4c75" opacity="0.7"/>
<circle cx="1067.9467043333093" cy="746.4184444304741" r="9.5" fill="#0f4c75" opacity="0.7"/>
<circle cx="1169.3519551040295" cy="993.6198547995969" r="9.5" fill="#0f4c75" opacity="0.7"/>
<circle cx="1200.113021014312" cy="970.9990122796805" r="9.5" fill="#0f4c75" opacity="0.7"/>
<circle cx="1315.63646262955" cy="888.7329768521556" r="9.5" fill="#0f4c75" opacity="0.7"/>
<circle cx="1139.9765182113913" cy="815.1353259569179" r="9.5" fill="#0f4c75" opacity="0.7"/>
<circle cx="1047.8226281265127" cy="940.059150741844" r="9.5" fill="#0f4c75" opacity="0.7"/>
<circle cx="1057.6389971819603" cy="995.4743303936277" r="9.5" fill="#3282b8" opacity="0.7"/>
<circle cx="1113.9214027921666" cy="853.6209109368905" r="9.5" fill="#3282b8" opacity="0.7"/>
<circle cx="1264.4613190694583" cy="926.3578816688793" r="9.5" fill="#3282b8" opacity="0.7"/>
<circle cx="1287.0228392795123" cy="978.9670442996786" r="9.5" fill="#3282b8" opacity="0.7"/>
<circle cx="1311.188204821488" cy="857.2910179191788" r="9.5" fill="#3282b8" opacity="0.7"/>
<circle cx="1229.883585177711" cy="809.3420593946062" r="9.5" fill="#3282b8" opacity="0.7"/>
<circle cx="910.4115735189929" cy="941.8455228244353" r="8.0" fill="#3282b8" opacity="0.7"/>
<circle cx="986.0980246599843" cy="859.4874224668989" r="8.0" fill="#3282b8" opacity="0.7"/>
<circle cx="904.1852045647277" cy="883.0900070979818" r="8.0" fill="#3282b8" opacity="0.7"/>
<circle cx="1428.5002029322338" cy="907.0815625647829" r="8.0" fill="#0f4c75" opacity="0.7"/>
<circle cx="1387.8178902334319" cy="817.1809993182263" r="8.0" fill="#0f4c75" opacity="0.7"/>
<circle cx="1312.2628465108776" cy="765.0600762597779" r="8.0" fill="#0f4c75" opacity="0.7"/>
<circle cx="1399.6282166052436" cy="740.8944716858878" r="8.0" fill="#0f4c75" opacity="0.7"/>
<circle cx="1280.2987593685205" cy="908.2542915492315" r="8.0" fill="#0f4c75" opacity="0.7"/>
<circle cx="1404.1106289108002" cy="848.7474671297123" r="8.0" fill="#3282b8" opacity="0.7"/>
<circle cx="1338.0801985702533" cy="803.9216510035408" r="6.5" fill="#3282b8" opacity="0.7"/>
<circle cx="1473.584753337679" cy="920.0353742969572" r="6.5" fill="#0f4c75" opacity="0.7"/>
<circle cx="1476.7234940338785" cy="967.7300209170787" r="6.5" fill="#0f4c75" opacity="0.7"/>
<circle cx="1369.2600884860465" cy="1077.5960693043205" r="6.5" fill="#0f4c75" opacity="0.7"/>
<circle cx="1492.7360693521696" cy="860.9836517324349" r="6.5" fill="#3282b8" opacity="0.7"/>
<circle cx="1510.3746102028895" cy="929.1511369162439" r="5.0" fill="#3282b8" opacity="0.7"/>
<circle cx="1485.7877254752073" cy="1020.5643171105189" r="5.0" fill="#3282b8" opacity="0.7"/>
<circle cx="1380.0458652236696" cy="1129.0332204620659" r="5.0" fill="#3282b8" opacity="0.7"/>
<circle cx="1294.8267376344002" cy="1161.9299479093295" r="5.0" fill="#0f4c75" opacity="0.7"/>
<circle cx="1324.9911540032224" cy="1188.1356504689463" r="3.5" fill="#3282b8" opacity="0.7"/>
<circle cx="1213.2178458482954" cy="1188.1550342986766" r="3.5" fill="#3282b8" opacity="0.7"/>
<circle cx="1330.137052063655" cy="1146.8374548448428" r="3.5" fill="#3282b8" opacity="0.7"/>
<circle cx="1414.8158459314477" cy="936.8356983867432" r="6.5" fill="#0f4c75" opacity="0.7"/>
<circle cx="1367.5734975513903" cy="697.8738733652746" r="6.5" fill="#0f4c75" opacity="0.7"/>
<circle cx="1365.6799093258865" cy="788.6309765088048" r="6.5" fill="#0f4c75" opacity="0.7"/>
<circle cx="1431.4310352015225" cy="1036.1204302317637" r="5.0" fill="#3282b8" opacity="0.7"/>
<circle cx="1406.214789269402" cy="992.9203045180209" r="5.0" fill="#3282b8" opacity="0.7"/>
<circle cx="1404.1891471585877" cy="886.5977486436516" r="5.0" fill="#3282b8" opacity="0.7"/>
<circle cx="1388.0095037490107" cy="955.6855398693103" r="5.0" fill="#3282b8" opacity="0.7"/>
<circle cx="1406.7994131108874" cy="662.7885351984683" r="5.0" fill="#3282b8" opacity="0.7"/>
<circle cx="1285.4774239733356" cy="658.1442329097504" r="5.0" fill="#0f4c75" opacity="0.7"/>
<circle cx="1211.4269491036257" cy="640.1289453321427" r="3.5" fill="#3282b8" opacity="0.7"/>
<circle cx="1433.523368897255" cy="829.5420533775642" r="5.0" fill="#3282b8" opacity="0.7"/>
<circle cx="1280.4461197794499" cy="690.9193829182531" r="5.0" fill="#0f4c75" opacity="0.7"/>
<circle cx="1209.864977042542" cy="607.5870004821187" r="3.5" fill="#3282b8" opacity="0.7"/>
<circle cx="1248.2841430498795" cy="710.1659198807874" r="6.5" fill="#0f4c75" opacity="0.7"/>
<circle cx="1158.1007088257345" cy="694.2749874955373" r="5.0" fill="#3282b8" opacity="0.7"/>
<circle cx="1296.8678308722208" cy="627.8035306050982" r="5.0" fill="#3282b8" opacity="0.7"/>
<circle cx="1257.21476904334" cy="740.5710440327495" r="5.0" fill="#3282b8" opacity="0.7"/>
<circle cx="1191.430171690557" cy="722.1219514409796" r="5.0" fill="#3282b8" opacity="0.7"/>
<circle cx="1291.6769444409265" cy="722.8427846552081" r="5.0" fill="#3282b8" opacity="0.7"/>
<circle cx="1367.7015191586647" cy="659.5827350367293" r="6.5" fill="#3282b8" opacity="0.7"/>
<circle cx="1364.6440106836717" cy="731.7843072648559" r="6.5" fill="#3282b8" opacity="0.7"/>
<circle cx="1450.6005558882619" cy="745.3288373966523" r="6.5" fill="#3282b8" opacity="0.7"/>
<circle cx="1257.2854189977095" cy="996.8814074444444" r="6.5" fill="#0f4c75" opacity="0.7"/>
<circle cx="1233.982422404466" cy="979.0004366986174" r="6.5" fill="#3282b8" opacity="0.7"/>
<circle cx="1138.9601661254314" cy="1055.3486128983125" r="5.0" fill="#0f4c75" opacity="0.7"/>
<circle cx="1287.3130412860455" cy="843.3044519516134" r="5.0" fill="#0f4c75" opacity="0.7"/>
<circle cx="1265.7362095692324" cy="1086.8038238806494" r="5.0" fill="#0f4c75" opacity="0.7"/>
<circle cx="1209.9549991353088" cy="1150.6871562496865" r="3.5" fill="#3282b8" opacity="0.7"/>
<circle cx="1081.7962078617534" cy="1158.03339295346" r="3.5" fill="#3282b8" opacity="0.7"/>
<circle cx="1060.2883055480684" cy="1029.5087771625306" r="3.5" fill="#3282b8" opacity="0.7"/>
<circle cx="1057.940998324339" cy="885.830120754611" r="3.5" fill="#3282b8" opacity="0.7"/>
<circle cx="1392.05924870477" cy="778.936857439166" r="3.5" fill="#3282b8" opacity="0.7"/>
<circle cx="1327.5257565850782" cy="708.3515748239142" r="3.5" fill="#0f4c75" opacity="0.7"/>
<circle cx="1411.332627587448" cy="703.3507420246156" r="2.0" fill="#3282b8" opacity="0.7"/>
<circle cx="1268.7417718984307" cy="607.4950271692948" r="2.0" fill="#3282b8" opacity="0.7"/>
<circle cx="1286.8607584631059" cy="1122.1412929580088" r="3.5" fill="#3282b8" opacity="0.7"/>
<circle cx="1246.5277701562375" cy="1183.7188721218354" r="3.5" fill="#0f4c75" opacity="0.7"/>
<circle cx="1181.2870838379265" cy="1212.1110057048093" r="2.0" fill="#3282b8" opacity="0.7"/>
<circle cx="1162.4312554718106" cy="1080.2348495174854" r="3.5" fill="#0f4c75" opacity="0.7"/>
<circle cx="1163.2329861957664" cy="1045.4145962380983" r="2.0" fill="#3282b8" opacity="0.7"/>
<circle cx="1221.7973846166137" cy="1097.9280005146363" r="2.0" fill="#3282b8" opacity="0.7"/>
<circle cx="962.2628770112051" cy="785.096768707274" r="8.0" fill="#3282b8" opacity="0.7"/>
<circle cx="1030.2187791062604" cy="835.5067463223818" r="8.0" fill="#0f4c75" opacity="0.7"/>
<circle cx="980.4335893734706" cy="820.0992343845696" r="6.5" fill="#3282b8" opacity="0.7"/>
<circle cx="1131.589727336179" cy="777.6611669955944" r="6.5" fill="#3282b8" opacity="0.7"/>
<circle cx="944.6969013684185" cy="843.9461876505211" r="6.5" fill="#3282b8" opacity="0.7"/>
<circle cx="1139.7320998523044" cy="921.0425434018786" r="6.5" fill="#3282b8" opacity="0.7"/>
<circle cx="1027.9824935366535" cy="754.0893923857485" r="6.5" fill="#3282b8" opacity="0.7"/>
<circle cx="941.1321221611488" cy="888.6118517583001" r="6.5" fill="#3282b8" opacity="0.7"/>
<circle cx="949.1799721280094" cy="930.5257231820339" r="6.5" fill="#3282b8" opacity="0.7"/>
<circle cx="1110.6177183343311" cy="701.021987035347" r="6.5" fill="#0f4c75" opacity="0.7"/>
<circle cx="1132.496598438204" cy="634.9429406559232" r="5.0" fill="#3282b8" opacity="0.7"/>
<circle cx="1251.573340095582" cy="841.7025780697697" r="8.0" fill="#3282b8" opacity="0.7"/>
<circle cx="1228.9162986444842" cy="1017.0042823339769" r="8.0" fill="#0f4c75" opacity="0.7"/>
<circle cx="1322.54797949498" cy="1040.4174959709135" r="6.5" fill="#3282b8" opacity="0.7"/>
<circle cx="1201.766791638023" cy="1119.7446036536487" r="6.5" fill="#3282b8" opacity="0.7"/>
<circle cx="1181.8410168830942" cy="950.5119719582714" r="6.5" fill="#3282b8" opacity="0.7"/>
<circle cx="1062.325553905934" cy="796.9616456380311" r="8.0" fill="#0f4c75" opacity="0.7"/>
<circle cx="1052.7278211777873" cy="687.0135018452615" r="8.0" fill="#0f4c75" opacity="0.7"/>
<circle cx="985.4998155758095" cy="741.4855957229689" r="8.0" fill="#0f4c75" opacity="0.7"/>
<circle cx="1052.2344866679493" cy="651.7767777910954" r="8.0" fill="#0f4c75" opacity="0.7"/>
<circle cx="1034.9386688119525" cy="782.824772256114" r="6.5" fill="#3282b8" opacity="0.7"/>
<circle cx="1007.9923203153943" cy="669.3378676044465" r="6.5" fill="#3282b8" opacity="0.7"/>
<circle cx="1092.8111254377907" cy="661.4347049944223" r="6.5" fill="#3282b8" opacity="0.7"/>
<circle cx="996.5121731667899" cy="774.636356191655" r="6.5" fill="#3282b8" opacity="0.7"/>
<circle cx="928.271550761615" cy="753.652909722571" r="6.5" fill="#3282b8" opacity="0.7"/>
<circle cx="960.5206009105294" cy="709.9959853063708" r="6.5" fill="#3282b8" opacity="0.7"/>
<circle cx="922.5575150192585" cy="801.1170878636987" r="6.5" fill="#3282b8" opacity="0.7"/>
<circle cx="1073.6859576782163" cy="713.9142318647342" r="6.5" fill="#3282b8" opacity="0.7"/>
<circle cx="1078.8181725252252" cy="616.8480524445598" r="6.5" fill="#3282b8" opacity="0.7"/>
<circle cx="1133.3297155996395" cy="951.7208185084694" r="8.0" fill="#0f4c75" opacity="0.7"/>
<circle cx="1208.3785938670717" cy="1056.946804467523" r="8.0" fill="#0f4c75" opacity="0.7"/>
<circle cx="1099.6808800400024" cy="940.481691641408" r="6.5" fill="#3282b8" opacity="0.7"/>
<circle cx="1063.3650106848456" cy="1073.6942678177838" r="6.5" fill="#3282b8" opacity="0.7"/>
<circle cx="1381.8516823480534" cy="914.625051637888" r="6.5" fill="#0f4c75" opacity="0.7"/>
<circle cx="1083.3889578603053" cy="1020.4891521428543" r="6.5" fill="#0f4c75" opacity="0.7"/>
<circle cx="1152.5083382100834" cy="847.6926586916574" r="6.5" fill="#0f4c75" opacity="0.7"/>
<circle cx="1087.0369511582735" cy="780.5138239840118" r="6.5" fill="#0f4c75" opacity="0.7"/>
<circle cx="1025.0101516349907" cy="870.9370081328764" r="6.5" fill="#0f4c75" opacity="0.7"/>
<circle cx="1185.8938274249886" cy="1026.2257151015694" r="6.5" fill="#0f4c75" opacity="0.7"/>
<circle cx="1146.3812642525963" cy="1159.6371349292847" r="6.5" fill="#3282b8" opacity="0.7"/>
<circle cx="1144.9195714242142" cy="1014.9118209974957" r="6.5" fill="#3282b8" opacity="0.7"/>
<circle cx="1159.2191439836365" cy="970.9739167379444" r="6.5" fill="#0f4c75" opacity="0.7"/>
<circle cx="1333.590163332246" cy="1105.1492806446565" r="6.5" fill="#0f4c75" opacity="0.7"/>
<circle cx="1319.9169700883326" cy="1074.8603987811425" r="6.5" fill="#0f4c75" opacity="0.7"/>
<circle cx="1110.3162467487327" cy="999.3043021729314" r="6.5" fill="#0f4c75" opacity="0.7"/>
<circle cx="1247.1947759276525" cy="1124.3939278880982" r="6.5" fill="#0f4c75" opacity="0.7"/>
<circle cx="1190.8258505769857" cy="918.8843985964934" r="5.0" fill="#3282b8" opacity="0.7"/>
<circle cx="1133.7461162247591" cy="1101.5428858982752" r="5.0" fill="#3282b8" opacity="0.7"/>
<circle cx="1009.5435318914873" cy="1024.9126306973671" r="5.0" fill="#3282b8" opacity="0.7"/>
<circle cx="1049.9341759095978" cy="915.7993324574693" r="5.0" fill="#3282b8" opacity="0.7"/>
<circle cx="1234.8558984321087" cy="914.0650732383112" r="8.0" fill="#0f4c75" opacity="0.7"/>
<circle cx="1314.2983925686576" cy="821.7804608356463" r="8.0" fill="#0f4c75" opacity="0.7"/>
<circle cx="1018.6404667638218" cy="1083.8125932452126" r="8.0" fill="#0f4c75" opacity="0.7"/>
<circle cx="1089.6885287148837" cy="1059.890423614673" r="8.0" fill="#0f4c75" opacity="0.7"/>
<circle cx="1203.141658149787" cy="1000.7793475016944" r="8.0" fill="#0f4c75" opacity="0.7"/>
<circle cx="1363.7820223158692" cy="988.5356024144576" r="8.0" fill="#0f4c75" opacity="0.7"/>
<circle cx="1119.4101604373905" cy="801.2867022949977" r="6.5" fill="#3282b8" opacity="0.7"/>
<circle cx="1302.2914802514592" cy="951.5164969383344" r="6.5" fill="#3282b8" opacity="0.7"/>
<circle cx="1217.1217547378144" cy="941.6830972941267" r="6.5" fill="#0f4c75" opacity="0.7"/>
<circle cx="1426.1148643777547" cy="792.627553916963" r="6.5" fill="#3282b8" opacity="0.7"/>
<circle cx="1367.3817549064872" cy="859.4314635253085" r="6.5" fill="#3282b8" opacity="0.7"/>
<circle cx="1220.9624890320301" cy="740.9871507842478" r="6.5" fill="#0f4c75" opacity="0.7"/>
<circle cx="1228.5104581801927" cy="682.8004245527253" r="5.0" fill="#3282b8" opacity="0.7"/>
<circle cx="1198.6723630326362" cy="691.997174288846" r="5.0" fill="#3282b8" opacity="0.7"/>
<circle cx="1317.4909284849564" cy="669.3887543837452" r="5.0" fill="#3282b8" opacity="0.7"/>
<circle cx="1173.036012207247" cy="661.67584667834" r="5.0" fill="#3282b8" opacity="0.7"/>
<circle cx="1204.4390694172664" cy="769.7068493127334" r="5.0" fill="#3282b8" opacity="0.7"/>
<circle cx="1240.1042156048231" cy="774.2987853213682" r="5.0" fill="#3282b8" opacity="0.7"/>
<circle cx="1107.9343620512063" cy="881.358600264888" r="5.0" fill="#3282b8" opacity="0.7"/>
<circle cx="1115.395702526931" cy="1036.100124827742" r="6.5" fill="#0f4c75" opacity="0.7"/>
<circle cx="1115.4086689943533" cy="920.8154110141245" r="5.0" fill="#3282b8" opacity="0.7"/>
<circle cx="1061.146402694888" cy="1115.9876450729828" r="5.0" fill="#3282b8" opacity="0.7"/>
<circle cx="1101.7572579367175" cy="1093.7250501994743" r="5.0" fill="#3282b8" opacity="0.7"/>
<circle cx="1012.8599343212466" cy="1131.0565864756609" r="6.5" fill="#3282b8" opacity="0.7"/>
<circle cx="951.3337803006985" cy="1065.1693742389511" r="6.5" fill="#3282b8" opacity="0.7"/>
<circle cx="1443.1269423418858" cy="1005.4030376629283" r="6.5" fill="#3282b8" opacity="0.7"/>
<circle cx="1360.1557827550998" cy="1017.6342452368508" r="8.0" fill="#3282b8" opacity="0.7"/>
<circle cx="1283.389921871581" cy="764.5092284320248" r="8.0" fill="#0f4c75" opacity="0.7"/>
<circle cx="1290.7456844017943" cy="880.6596224115979" r="8.0" fill="#0f4c75" opacity="0.7"/>
<circle cx="1258.8604115169003" cy="1031.31868280483" r="6.5" fill="#0f4c75" opacity="0.7"/>
<circle cx="1171.2364304404687" cy="1128.564974923678" r="5.0" fill="#3282b8" opacity="0.7"/>
<circle cx="1249.8933739658848" cy="654.4705340058375" r="6.5" fill="#3282b8" opacity="0.7"/>
<circle cx="1277.2903945996259" cy="806.1885330071323" r="6.5" fill="#3282b8" opacity="0.7"/>
<circle cx="1352.452822090451" cy="893.220948917751" r="6.5" fill="#3282b8" opacity="0.7"/>
<circle cx="1152.4880101774786" cy="737.6245507373125" r="8.0" fill="#3282b8" opacity="0.7"/>
<circle cx="1117.502814014146" cy="746.6894549435807" r="8.0" fill="#3282b8" opacity="0.7"/>
<circle cx="995.8295273608821" cy="915.7346001231609" r="8.0" fill="#3282b8" opacity="0.7"/>
<circle cx="1168.0471659548284" cy="771.0062813038445" r="8.0" fill="#3282b8" opacity="0.7"/>
<circle cx="1012.943523577206" cy="975.9092224916251" r="8.0" fill="#3282b8" opacity="0.7"/>
<circle cx="986.1250628662428" cy="992.1288690476333" r="8.0" fill="#0f4c75" opacity="0.7"/>
<circle cx="1071.6152438786753" cy="956.3890417695342" r="8.0" fill="#0f4c75" opacity="0.7"/>
<circle cx="1013.6530646388695" cy="944.6196228565375" r="8.0" fill="#0f4c75" opacity="0.7"/>
<circle cx="1040.97712164206" cy="970.5903759324939" r="8.0" fill="#0f4c75" opacity="0.7"/>
<circle cx="973.856061795788" cy="961.3512679819659" r="8.0" fill="#0f4c75" opacity="0.7"/>
<circle cx="1066.4274116644795" cy="851.1179536488296" r="8.0" fill="#0f4c75" opacity="0.7"/>
<circle cx="1435.7375192738457" cy="963.7158226474901" r="5.0" fill="#3282b8" opacity="0.7"/>
<circle cx="1458.0292191967226" cy="882.4036810041858" r="5.0" fill="#3282b8" opacity="0.7"/>
<circle cx="1469.1539012629926" cy="826.8481273250746" r="5.0" fill="#3282b8" opacity="0.7"/>
<circle cx="1027.1716837284998" cy="1052.386309533798" r="5.0" fill="#3282b8" opacity="0.7"/>
<circle cx="1179.1794398321294" cy="807.5470107887597" r="5.0" fill="#3282b8" opacity="0.7"/>
<circle cx="1027.5596281104183" cy="717.2204591772476" r="5.0" fill="#3282b8" opacity="0.7"/>
<circle cx="1407.7676642546176" cy="1102.18480914283" r="5.0" fill="#3282b8" opacity="0.7"/>
<circle cx="1389.4539594889661" cy="1052.214381785152" r="5.0" fill="#3282b8" opacity="0.7"/>
<circle cx="1082.2084939717524" cy="908.5255931444411" r="5.0" fill="#3282b8" opacity="0.7"/>
<circle cx="1320.406155752157" cy="993.0841623469047" r="6.5" fill="#3282b8" opacity="0.7"/>
<circle cx="1336.5696435705236" cy="965.4284490274202" r="5.0" fill="#3282b8" opacity="0.7"/>
<circle cx="1243.0277524329276" cy="943.8302176165746" r="5.0" fill="#3282b8" opacity="0.7"/>
<circle cx="1142.8133304026433" cy="881.4941144088837" r="5.0" fill="#3282b8" opacity="0.7"/>
<circle cx="1024.6569687885542" cy="900.524801770017" r="5.0" fill="#3282b8" opacity="0.7"/>
<circle cx="1221.7505224316155" cy="867.212510323376" r="5.0" fill="#3282b8" opacity="0.7"/>
<circle cx="1285.540765819157" cy="1053.904980509499" r="5.0" fill="#3282b8" opacity="0.7"/>
<circle cx="1251.5844237184588" cy="880.248848159673" r="5.0" fill="#3282b8" opacity="0.7"/>
<circle cx="1214.8011176951773" cy="835.1230125045936" r="5.0" fill="#3282b8" opacity="0.7"/>
<circle cx="1338.7662020704465" cy="931.9932079520631" r="5.0" fill="#3282b8" opacity="0.7"/>
<circle cx="1306.4585793414935" cy="922.1878544261835" r="5.0" fill="#3282b8" opacity="0.7"/>
<circle cx="1187.5567596819458" cy="850.1871514399515" r="5.0" fill="#3282b8" opacity="0.7"/>
<circle cx="1166.5704021076351" cy="907.4796853643674" r="5.0" fill="#3282b8" opacity="0.7"/>
<circle cx="1094.541649282665" cy="980.2455298112009" r="5.0" fill="#3282b8" opacity="0.7"/>
<circle cx="1292.279462393959" cy="1016.7105596563628" r="5.0" fill="#3282b8" opacity="0.7"/>
<circle cx="1241.0999235015602" cy="1056.67016757479" r="5.0" fill="#3282b8" opacity="0.7"/>
<circle cx="1192.0456944882178" cy="1080.0057180832373" r="5.0" fill="#3282b8" opacity="0.7"/>
<circle cx="1345.6901740087274" cy="763.053387114496" r="6.5" fill="#3282b8" opacity="0.7"/>
<circle cx="1264.1745310388528" cy="966.3220276581162" r="6.5" fill="#3282b8" opacity="0.7"/>
<circle cx="967.2705339229378" cy="1029.9718377476715" r="6.5" fill="#3282b8" opacity="0.7"/>
<circle cx="1102.6271832825937" cy="1133.5376292394883" r="6.5" fill="#3282b8" opacity="0.7"/>
<circle cx="976.3593929420224" cy="1100.7939502481393" r="6.5" fill="#3282b8" opacity="0.7"/>
<circle cx="1102.4926096649071" cy="826.4811459986622" r="9.5" fill="#3282b8" opacity="0.7"/>
</svg>