<svg xmlns="http://www.w3.org/2000/svg" viewBox="0 0 2000 2000">
<rect width="100%" height="100%" fill="#050505"/>
<circle cx="1814.2857142857142" cy="1000.0" r="20" fill="#a8e6cf" opacity="0.8"/>
<line x1="1000.0" y1="1000.0" x2="1814.2857142857142" y2="1000.0" stroke="#e94560" stroke-width="2" opacity="0.3"/>
<circle cx="1678.5714285714284" cy="1000.0" r="8" fill="#a8e6cf" opacity="0.8"/>
<circle cx="1632.7490128100985" cy="1245.1282734841395" r="8" fill="#a8e6cf" opacity="0.8"/>
<circle cx="1501.4703366854474" cy="1457.1506153315925" r="8" fill="#a8e6cf" opacity="0.8"/>
<circle cx="1302.4653128483653" cy="1607.4322334195067" r="8" fill="#a8e6cf" opacity="0.8"/>
<circle cx="1062.610672492955" cy="1675.6767624859162" r="8" fill="#a8e6cf" opacity="0.8"/>
<circle cx="814.300113879658" cy="1652.6674007244128" r="8" fill="#a8e6cf" opacity="0.8"/>
<circle cx="591.0693538855046" cy="1541.5116899401626" r="8" fill="#a8e6cf" opacity="0.8"/>
<circle cx="423.06694361204757" cy="1357.2218248096342" r="8" fill="#a8e6cf" opacity="0.8"/>
<circle cx="332.98253950020955" cy="1124.6871728041012" r="8" fill="#a8e6cf" opacity="0.8"/>
<circle cx="332.98253950020955" cy="875.3128271958989" r="8" fill="#a8e6cf" opacity="0.8"/>
<circle cx="423.06694361204757" cy="642.7781751903657" r="4" fill="#a8e6cf" opacity="0.8"/>
<circle cx="591.0693538855046" cy="458.48831005983754" r="4" fill="#a8e6cf" opacity="0.8"/>
<circle cx="814.3001138796578" cy="347.3325992755871" r="4" fill="#a8e6cf" opacity="0.8"/>
<circle cx="1062.6106724929546" cy="324.32323751408364" r="4" fill="#a8e6cf" opacity="0.8"/>
<circle cx="1302.4653128483656" cy="392.5677665804935" r="4" fill="#a8e6cf" opacity="0.8"/>
<circle cx="1501.4703366854474" cy="542.8493846684078" r="4" fill="#a8e6cf" opacity="0.8"/>
<circle cx="1632.7490128100985" cy="754.8717265158605" r="4" fill="#a8e6cf" opacity="0.8"/>
<circle cx="1542.8571428571427" cy="1000.0" r="4" fill="#a8e6cf" opacity="0.8"/>
<circle cx="1535.8272854320098" cy="1087.0804096084985" r="4" fill="#a8e6cf" opacity="0.8"/>
<circle cx="1514.9197827713074" cy="1171.9054823493707" r="4" fill="#a8e6cf" opacity="0.8"/>
<circle cx="1480.6761282117425" cy="1252.2782933951885" r="8" fill="#a8e6cf" opacity="0.8"/>
<circle cx="1433.9832144190434" cy="1326.11722915776" r="8" fill="#a8e6cf" opacity="0.8"/>
<circle cx="1376.0503633337826" cy="1391.509899986642" r="8" fill="#a8e6cf" opacity="0.8"/>
<circle cx="1308.3780053683417" cy="1446.7626700565563" r="8" fill="#a8e6cf" opacity="0.8"/>
<circle cx="1232.7188190473723" cy="1490.444521645636" r="8" fill="#a8e6cf" opacity="0.8"/>
<circle cx="1151.0323375546457" cy="1521.4241177427448" r="4" fill="#a8e6cf" opacity="0.8"/>
<circle cx="1065.4341978528898" cy="1538.8991030818006" r="4" fill="#ff6b6b" opacity="0.8"/>
<circle cx="978.1413467977462" cy="1542.4168847217093" r="8" fill="#a8e6cf" opacity="0.8"/>
<circle cx="891.4146233787188" cy="1531.8863539658023" r="4" fill="#a8e6cf" opacity="0.8"/>
<circle cx="807.5002041769094" cy="1507.5802460292252" r="8" fill="#a8e6cf" opacity="0.8"/>
<circle cx="728.5714285714287" cy="1470.1280763401237" r="8" fill="#a8e6cf" opacity="0.8"/>
<circle cx="656.672510391081" cy="1420.4998364207268" r="8" fill="#a8e6cf" opacity="0.8"/>
<circle cx="593.6655938499739" cy="1359.9808716164318" r="8" fill="#a8e6cf" opacity="0.8"/>
<circle cx="541.1825249905116" cy="1290.1385913265206" r="8" fill="#a8e6cf" opacity="0.8"/>
<circle cx="500.5825877280669" cy="1212.7818739240408" r="8" fill="#a8e6cf" opacity="0.8"/>
<circle cx="472.9172991115719" cy="1129.914217756103" r="8" fill="#a8e6cf" opacity="0.8"/>
<circle cx="458.90317558428615" cy="1043.6818515890798" r="8" fill="#a8e6cf" opacity="0.8"/>
<circle cx="458.90317558428603" cy="956.3181484109205" r="8" fill="#a8e6cf" opacity="0.8"/>
<circle cx="472.91729911157177" cy="870.0857822438975" r="8" fill="#a8e6cf" opacity="0.8"/>
<circle cx="500.5825877280669" cy="787.2181260759594" r="8" fill="#a8e6cf" opacity="0.8"/>
<circle cx="541.1825249905114" cy="709.8614086734797" r="8" fill="#a8e6cf" opacity="0.8"/>
<circle cx="593.6655938499737" cy="640.0191283835685" r="8" fill="#a8e6cf" opacity="0.8"/>
<circle cx="656.6725103910808" cy="579.5001635792735" r="4" fill="#a8e6cf" opacity="0.8"/>
<circle cx="728.5714285714284" cy="529.8719236598763" r="8" fill="#a8e6cf" opacity="0.8"/>
<circle cx="807.5002041769092" cy="492.41975397077493" r="8" fill="#a8e6cf" opacity="0.8"/>
<circle cx="891.4146233787187" cy="468.1136460341976" r="4" fill="#a8e6cf" opacity="0.8"/>
<circle cx="978.1413467977461" cy="457.58311527829085" r="4" fill="#a8e6cf" opacity="0.8"/>
<circle cx="1065.4341978528892" cy="461.1008969181993" r="4" fill="#a8e6cf" opacity="0.8"/>
<circle cx="1151.0323375546454" cy="478.575882257255" r="4" fill="#a8e6cf" opacity="0.8"/>
<circle cx="1232.718819047372" cy="509.5554783543639" r="4" fill="#ff6b6b" opacity="0.8"/>
<circle cx="1308.3780053683415" cy="553.2373299434437" r="8" fill="#a8e6cf" opacity="0.8"/>
<circle cx="1376.0503633337823" cy="608.4901000133577" r="8" fill="#a8e6cf" opacity="0.8"/>
<circle cx="1433.9832144190432" cy="673.8827708422397" r="8" fill="#a8e6cf" opacity="0.8"/>
<circle cx="1480.6761282117423" cy="747.7217066048111" r="8" fill="#a8e6cf" opacity="0.8"/>
<circle cx="1514.9197827713074" cy="828.094517650629" r="8" fill="#a8e6cf" opacity="0.8"/>
<circle cx="1535.8272854320098" cy="912.9195903915014" r="8" fill="#a8e6cf" opacity="0.8"/>
<circle cx="1407.142857142857" cy="1000.0" r="4" fill="#a8e6cf" opacity="0.8"/>
<circle cx="1405.456000173552" cy="1037.0234796543164" r="8" fill="#a8e6cf" opacity="0.8"/>
<circle cx="1400.4094070937379" cy="1073.7401710961556" r="8" fill="#a8e6cf" opacity="0.8"/>
<circle cx="1392.0448955630327" cy="1109.8458282567885" r="8" fill="#a8e6cf" opacity="0.8"/>
<circle cx="1380.4317765582732" cy="1145.0412682899769" r="4" fill="#a8e6cf" opacity="0.8"/>
<circle cx="1365.6662800409333" cy="1179.0348506952616" r="8" fill="#a8e6cf" opacity="0.8"/>
<circle cx="1347.8707575653561" cy="1211.544893942998" r="8" fill="#a8e6cf" opacity="0.8"/>
<circle cx="1327.192668435241" cy="1242.3020095762215" r="8" fill="#a8e6cf" opacity="0.8"/>
<circle cx="1303.8033578094148" cy="1271.0513344482438" r="8" fill="#a8e6cf" opacity="0.8"/>
<circle cx="1277.8966368818806" cy="1297.5546425989505" r="4" fill="#a8e6cf" opacity="0.8"/>
<circle cx="1249.6871769012273" cy="1321.5923192701346" r="4" fill="#a8e6cf" opacity="0.8"/>
<circle cx="1219.4087303370557" cy="1342.9651807025461" r="4" fill="#a8e6cf" opacity="0.8"/>
<circle cx="1187.3121939333978" cy="1361.4961246352527" r="8" fill="#a8e6cf" opacity="0.8"/>
<circle cx="1153.6635296992788" cy="1377.0315978307492" r="4" fill="#ff6b6b" opacity="0.8"/>
<circle cx="1118.7415610637502" cy="1389.4428684654433" r="4" fill="#a8e6cf" opacity="0.8"/>
<circle cx="1082.8356624571438" cy="1398.6270928420886" r="4" fill="#a8e6cf" opacity="0.8"/>
<circle cx="1046.2433614634076" cy="1404.5081675850483" r="4" fill="#a8e6cf" opacity="0.8"/>
<circle cx="1009.2678734128431" cy="1407.037360256835" r="4" fill="#a8e6cf" opacity="0.8"/>
<circle cx="972.215588844384" cy="1406.1937131704337" r="4" fill="#a8e6cf" opacity="0.8"/>
<circle cx="935.3935346570978" cy="1401.9842170512984" r="4" fill="#a8e6cf" opacity="0.8"/>
<circle cx="899.1068299886051" cy="1394.4437531099975" r="4" fill="#a8e6cf" opacity="0.8"/>
<circle cx="863.6561579018128" cy="1383.6348040055198" r="8" fill="#a8e6cf" opacity="0.8"/>
<circle cx="829.3352738303583" cy="1369.646936094282" r="4" fill="#a8e6cf" opacity="0.8"/>
<circle cx="796.4285714285716" cy="1352.596057255093" r="4" fill="#a8e6cf" opacity="0.8"/>
<circle cx="765.2087259960898" cy="1332.6234564399656" r="4" fill="#a8e6cf" opacity="0.8"/>
<circle cx="735.9344350044494" cy="1309.8946329093642" r="4" fill="#4ecdc4" opacity="0.8"/>
<circle cx="708.8482744483624" cy="1284.597924853209" r="4" fill="#45b7d1" opacity="0.8"/>
<circle cx="684.1746887846291" cy="1256.9429487613215" r="4" fill="#45b7d1" opacity="0.8"/>
<circle cx="662.1181311146827" cy="1227.158862475172" r="4" fill="#45b7d1" opacity="0.8"/>
<circle cx="642.861369021801" cy="1195.492466313837" r="4" fill="#45b7d1" opacity="0.8"/>
<circle cx="626.5639701013514" cy="1162.206158008827" r="4" fill="#a8e6cf" opacity="0.8"/>
<circle cx="613.3609797334416" cy="1127.575758393845" r="4" fill="#a8e6cf" opacity="0.8"/>
<circle cx="603.3618020543693" cy="1091.888225866493" r="4" fill="#a8e6cf" opacity="0.8"/>
<circle cx="596.6492933994939" cy="1055.4392785606146" r="4" fill="#a8e6cf" opacity="0.8"/>
<circle cx="593.2790757295467" cy="1018.5309439327066" r="4" fill="#a8e6cf" opacity="0.8"/>
<circle cx="593.2790757295467" cy="981.4690560672935" r="4" fill="#ff6b6b" opacity="0.8"/>
<circle cx="596.6492933994939" cy="944.5607214393854" r="8" fill="#a8e6cf" opacity="0.8"/>
<circle cx="603.3618020543693" cy="908.1117741335072" r="8" fill="#a8e6cf" opacity="0.8"/>
<circle cx="613.3609797334414" cy="872.4242416061553" r="8" fill="#a8e6cf" opacity="0.8"/>
<circle cx="626.5639701013513" cy="837.7938419911733" r="8" fill="#a8e6cf" opacity="0.8"/>
<circle cx="642.8613690218009" cy="804.507533686163" r="8" fill="#a8e6cf" opacity="0.8"/>
<circle cx="662.1181311146827" cy="772.8411375248279" r="8" fill="#a8e6cf" opacity="0.8"/>
<circle cx="684.1746887846291" cy="743.0570512386785" r="4" fill="#a8e6cf" opacity="0.8"/>
<circle cx="708.8482744483624" cy="715.402075146791" r="4" fill="#ff6b6b" opacity="0.8"/>
<circle cx="735.9344350044491" cy="690.105367090636" r="8" fill="#a8e6cf" opacity="0.8"/>
<circle cx="765.2087259960898" cy="667.3765435600344" r="8" fill="#a8e6cf" opacity="0.8"/>
<circle cx="796.4285714285713" cy="647.4039427449072" r="8" fill="#a8e6cf" opacity="0.8"/>
<circle cx="829.3352738303582" cy="630.353063905718" r="8" fill="#a8e6cf" opacity="0.8"/>
<circle cx="863.6561579018127" cy="616.3651959944802" r="8" fill="#a8e6cf" opacity="0.8"/>
<circle cx="899.1068299886048" cy="605.5562468900025" r="4" fill="#ff6b6b" opacity="0.8"/>
<circle cx="935.3935346570977" cy="598.0157829487017" r="4" fill="#96ceb4" opacity="0.8"/>
<circle cx="972.2155888443838" cy="593.8062868295663" r="8" fill="#a8e6cf" opacity="0.8"/>
<circle cx="1009.2678734128431" cy="592.962639743165" r="4" fill="#ff6b6b" opacity="0.8"/>
<circle cx="1046.2433614634076" cy="595.4918324149517" r="4" fill="#96ceb4" opacity="0.8"/>
<circle cx="1082.8356624571436" cy="601.3729071579114" r="8" fill="#a8e6cf" opacity="0.8"/>
<circle cx="1118.7415610637502" cy="610.5571315345567" r="8" fill="#a8e6cf" opacity="0.8"/>
<circle cx="1153.6635296992786" cy="622.9684021692507" r="4" fill="#ff6b6b" opacity="0.8"/>
<circle cx="1187.3121939333973" cy="638.503875364747" r="4" fill="#a8e6cf" opacity="0.8"/>
<circle cx="1219.4087303370557" cy="657.0348192974539" r="4" fill="#a8e6cf" opacity="0.8"/>
<circle cx="1249.6871769012273" cy="678.4076807298654" r="8" fill="#a8e6cf" opacity="0.8"/>
<circle cx="1277.8966368818803" cy="702.4453574010493" r="4" fill="#a8e6cf" opacity="0.8"/>
<circle cx="1303.8033578094146" cy="728.9486655517562" r="4" fill="#a8e6cf" opacity="0.8"/>
<circle cx="1327.192668435241" cy="757.6979904237783" r="4" fill="#a8e6cf" opacity="0.8"/>
<circle cx="1347.8707575653561" cy="788.455106057002" r="4" fill="#ffd93d" opacity="0.8"/>
<circle cx="1365.6662800409333" cy="820.9651493047382" r="4" fill="#ffd93d" opacity="0.8"/>
<circle cx="1380.4317765582732" cy="854.9587317100229" r="4" fill="#ffd93d" opacity="0.8"/>
<circle cx="1392.0448955630325" cy="890.1541717432115" r="4" fill="#ffd93d" opacity="0.8"/>
<circle cx="1400.4094070937379" cy="926.2598289038442" r="4" fill="#96ceb4" opacity="0.8"/>
<circle cx="1405.456000173552" cy="962.9765203456838" r="4" fill="#ffd93d" opacity="0.8"/>
<circle cx="1271.4285714285713" cy="1000.0" r="4" fill="#a8e6cf" opacity="0.8"/>
<circle cx="1269.9899662382456" cy="1027.908556365855" r="4" fill="#a8e6cf" opacity="0.8"/>
<circle cx="1265.6894002401684" cy="1055.5212750913975" r="4" fill="#a8e6cf" opacity="0.8"/>
<circle cx="1258.5724605037753" cy="1082.5454544888976" r="8" fill="#a8e6cf" opacity="0.8"/>
<circle cx="1248.7145883607584" cy="1108.694631533915" r="4" fill="#a8e6cf" opacity="0.8"/>
<circle cx="1236.220279708185" cy="1133.6916184446204" r="4" fill="#a8e6cf" opacity="0.8"/>
<circle cx="1221.2219773259917" cy="1157.2714409412388" r="4" fill="#a8e6cf" opacity="0.8"/>
<circle cx="1203.8786669505696" cy="1179.1841470393342" r="4" fill="#a8e6cf" opacity="0.8"/>
<circle cx="1184.374191986408" cy="1199.1974566030253" r="4" fill="#a8e6cf" opacity="0.8"/>
<circle cx="1162.9153047202715" cy="1217.0992235722094" r="8" fill="#a8e6cf" opacity="0.8"/>
<circle cx="1139.7294746955256" cy="1232.6996847635758" r="4" fill="#a8e6cf" opacity="0.8"/>
<circle cx="1115.0624774783907" cy="1245.8334714075565" r="8" fill="#a8e6cf" opacity="0.8"/>
<circle cx="1089.175789375798" cy="1256.3613620984224" r="4" fill="#a8e6cf" opacity="0.8"/>
<circle cx="1062.3438157214873" cy="1264.171758575818" r="4" fill="#a8e6cf" opacity="0.8"/>
<circle cx="1034.8509821112066" cy="1269.1818686940846" r="4" fill="#a8e6cf" opacity="0.8"/>
<circle cx="1006.9887194206398" cy="1271.3385840395993" r="4" fill="#a8e6cf" opacity="0.8"/>
<circle cx="979.0523745656246" cy="1270.6190428931714" r="4" fill="#a8e6cf" opacity="0.8"/>
<circle cx="951.3380797513718" cy="1267.0308725699545" r="8" fill="#a8e6cf" opacity="0.8"/>
<circle cx="924.1396133974204" cy="1260.612108568006" r="8" fill="#a8e6cf" opacity="0.8"/>
<circle cx="897.7452860133069" cy="1251.4307913825487" r="8" fill="#a8e6cf" opacity="0.8"/>
<circle cx="872.4348840354419" cy="1239.5842452597915" r="4" fill="#a8e6cf" opacity="0.8"/>
<circle cx="848.4767040212796" cy="1225.1980465357108" r="4" fill="#a8e6cf" opacity="0.8"/>
<circle cx="826.1247086390667" cy="1208.4246924956485" r="4" fill="#a8e6cf" opacity="0.8"/>
<circle cx="805.615834600379" cy="1189.4419848651505" r="4" fill="#a8e6cf" opacity="0.8"/>
<circle cx="787.1674810720358" cy="1168.4511450674433" r="4" fill="#a8e6cf" opacity="0.8"/>
<circle cx="770.9752051908497" cy="1145.6746812262916" r="4" fill="#a8e6cf" opacity="0.8"/>
<circle cx="757.210649109327" cy="1121.354029524531" r="4" fill="#a8e6cf" opacity="0.8"/>
<circle cx="746.0197205461518" cy="1095.7469949204688" r="4" fill="#a8e6cf" opacity="0.8"/>
<circle cx="737.5210461280702" cy="1069.1250183511906" r="4" fill="#a8e6cf" opacity="0.8"/>
<circle cx="731.8047139181363" cy="1041.7702993911025" r="4" fill="#a8e6cf" opacity="0.8"/>
<circle cx="728.9313184598318" cy="1013.972804866237" r="4" fill="#a8e6cf" opacity="0.8"/>
<circle cx="728.9313184598318" cy="986.0271951337633" r="4" fill="#a8e6cf" opacity="0.8"/>
<circle cx="731.8047139181363" cy="958.2297006088976" r="4" fill="#4ecdc4" opacity="0.8"/>
<circle cx="737.5210461280702" cy="930.8749816488094" r="4" fill="#4ecdc4" opacity="0.8"/>
<circle cx="746.0197205461517" cy="904.2530050795316" r="4" fill="#a8e6cf" opacity="0.8"/>
<circle cx="757.2106491093269" cy="878.6459704754692" r="4" fill="#a8e6cf" opacity="0.8"/>
<circle cx="770.9752051908496" cy="854.3253187737087" r="4" fill="#96ceb4" opacity="0.8"/>
<circle cx="787.1674810720357" cy="831.5488549325568" r="4" fill="#96ceb4" opacity="0.8"/>
<circle cx="805.6158346003789" cy="810.5580151348497" r="4" fill="#96ceb4" opacity="0.8"/>
<circle cx="826.1247086390667" cy="791.5753075043515" r="4" fill="#96ceb4" opacity="0.8"/>
<circle cx="848.4767040212794" cy="774.8019534642893" r="4" fill="#96ceb4" opacity="0.8"/>
<circle cx="872.4348840354415" cy="760.4157547402087" r="4" fill="#96ceb4" opacity="0.8"/>
<circle cx="897.7452860133068" cy="748.5692086174515" r="4" fill="#96ceb4" opacity="0.8"/>
<circle cx="924.1396133974202" cy="739.3878914319939" r="4" fill="#96ceb4" opacity="0.8"/>
<circle cx="951.3380797513717" cy="732.9691274300455" r="4" fill="#96ceb4" opacity="0.8"/>
<circle cx="979.0523745656245" cy="729.3809571068285" r="4" fill="#a8e6cf" opacity="0.8"/>
<circle cx="1006.9887194206395" cy="728.6614159604007" r="4" fill="#45b7d1" opacity="0.8"/>
<circle cx="1034.8509821112066" cy="730.8181313059154" r="4" fill="#45b7d1" opacity="0.8"/>
<circle cx="1062.3438157214873" cy="735.8282414241819" r="4" fill="#45b7d1" opacity="0.8"/>
<circle cx="1089.1757893757979" cy="743.6386379015777" r="4" fill="#45b7d1" opacity="0.8"/>
<circle cx="1115.0624774783907" cy="754.1665285924435" r="4" fill="#45b7d1" opacity="0.8"/>
<circle cx="1139.7294746955254" cy="767.300315236424" r="4" fill="#45b7d1" opacity="0.8"/>
<circle cx="1162.9153047202713" cy="782.9007764277903" r="4" fill="#45b7d1" opacity="0.8"/>
<circle cx="1184.374191986408" cy="800.8025433969744" r="4" fill="#45b7d1" opacity="0.8"/>
<circle cx="1203.8786669505696" cy="820.8158529606656" r="4" fill="#45b7d1" opacity="0.8"/>
<circle cx="1221.2219773259915" cy="842.7285590587612" r="4" fill="#45b7d1" opacity="0.8"/>
<circle cx="1236.220279708185" cy="866.3083815553796" r="4" fill="#45b7d1" opacity="0.8"/>
<circle cx="1248.7145883607584" cy="891.3053684660846" r="4" fill="#45b7d1" opacity="0.8"/>
<circle cx="1258.5724605037751" cy="917.4545455111021" r="4" fill="#45b7d1" opacity="0.8"/>
<circle cx="1265.6894002401684" cy="944.4787249086025" r="4" fill="#45b7d1" opacity="0.8"/>
<circle cx="1269.9899662382456" cy="972.091443634145" r="4" fill="#45b7d1" opacity="0.8"/>
<circle cx="1135.7142857142858" cy="1000.0" r="4" fill="#a8e6cf" opacity="0.8"/>
<circle cx="1122.2743463581855" cy="1058.8842217373829" r="4" fill="#a8e6cf" opacity="0.8"/>
<circle cx="1084.6164731093995" cy="1106.1057011920898" r="4" fill="#a8e6cf" opacity="0.8"/>
<circle cx="1030.1992696083569" cy="1132.311645224676" r="4" fill="#a8e6cf" opacity="0.8"/>
<circle cx="969.800730391643" cy="1132.311645224676" r="4" fill="#a8e6cf" opacity="0.8"/>
<circle cx="915.3835268906005" cy="1106.1057011920898" r="4" fill="#ffd93d" opacity="0.8"/>
<circle cx="877.7256536418146" cy="1058.8842217373829" r="4" fill="#ff6b6b" opacity="0.8"/>
<circle cx="864.2857142857143" cy="1000.0" r="4" fill="#a8e6cf" opacity="0.8"/>
<circle cx="877.7256536418146" cy="941.1157782626171" r="4" fill="#a8e6cf" opacity="0.8"/>
<circle cx="915.3835268906005" cy="893.8942988079102" r="4" fill="#ffd93d" opacity="0.8"/>
<circle cx="969.800730391643" cy="867.6883547753239" r="8" fill="#a8e6cf" opacity="0.8"/>
<circle cx="1030.1992696083569" cy="867.6883547753239" r="4" fill="#ffd93d" opacity="0.8"/>
<circle cx="1084.6164731093995" cy="893.8942988079102" r="8" fill="#a8e6cf" opacity="0.8"/>
<circle cx="1122.2743463581855" cy="941.1157782626171" r="8" fill="#a8e6cf" opacity="0.8"/>
<circle cx="1000.0" cy="1000.0" r="4" fill="#a8e6cf" opacity="0.8"/>
<circle cx="1000.0" cy="1000.0" r="4" fill="#a8e6cf" opacity="0.8"/>
<circle cx="1000.0" cy="1000.0" r="4" fill="#a8e6cf" opacity="0.8"/>
<circle cx="1000.0" cy="1000.0" r="4" fill="#a8e6cf" opacity="0.8"/>
<circle cx="1000.0" cy="1000.0" r="4" fill="#a8e6cf" opacity="0.8"/>
</svg>